<?xml version="1.0" encoding="UTF-8" standalone="no"?>
<svg width="148px" height="495px" viewBox="0 0 148 495" version="1.1" xmlns="http://www.w3.org/2000/svg" xmlns:xlink="http://www.w3.org/1999/xlink">
    <!-- Generator: Sketch 41.2 (35397) - http://www.bohemiancoding.com/sketch -->
    <title>footer_logo</title>
    <desc>Created with Sketch.</desc>
    <defs>
        <polygon id="path-1" points="0 39.7179832 145.887718 39.7179832 145.887718 0 0 0"></polygon>
        <polygon id="path-3" points="0 56.6417708 145.710777 56.6417708 145.710777 0 0 0"></polygon>
    </defs>
    <g id="Page-1" stroke="none" stroke-width="1" fill="none" fill-rule="evenodd">
        <g id="footer_logo">
            <g id="car" transform="translate(1.000000, 0.000000)" fill="#FFFFFF">
                <g id="Group">
                    <path d="M38.718,19.158 L38.718,13.464 C38.718,8.869 35.693,6.492 35.564,6.394 C35.427,6.288 35.259,6.231 35.086,6.231 L27.91,6.231 L27.91,1.49 C27.91,1.055 27.56,0.703 27.126,0.703 L1.356,0.703 C0.923,0.703 0.572,1.055 0.572,1.489 L0.572,19.939 C0.572,20.372 0.922,20.724 1.357,20.724 L2.185,20.724 L2.185,24.027 C2.185,24.462 2.535,24.813 2.969,24.813 L5.474,24.813 C5.386,25.168 5.334,25.537 5.334,25.919 C5.334,28.431 7.374,30.475 9.882,30.475 C12.39,30.475 14.43,28.431 14.43,25.919 C14.43,25.537 14.38,25.169 14.29,24.813 L27.624,24.813 C27.536,25.168 27.484,25.537 27.484,25.919 C27.484,28.431 29.524,30.475 32.032,30.475 C34.54,30.475 36.58,28.431 36.58,25.919 C36.58,25.537 36.528,25.169 36.438,24.813 L38.633,24.813 C39.067,24.813 39.417,24.463 39.417,24.027 L39.417,19.937 C39.417,19.533 39.111,19.2 38.717,19.157 L38.718,19.158 Z M37.15,13.464 L37.15,13.721 L34.1,13.721 L34.1,7.804 L34.795,7.804 C35.381,8.347 37.15,10.254 37.15,13.464 L37.15,13.464 Z M27.91,7.804 L32.53,7.804 L32.53,13.721 L27.91,13.721 L27.91,7.804 L27.91,7.804 Z M2.14,2.273 L26.34,2.273 L26.34,19.153 L2.14,19.153 L2.14,2.273 Z M9.883,28.903 C8.239,28.903 6.903,27.566 6.903,25.919 C6.903,24.273 8.239,22.935 9.883,22.935 C11.525,22.935 12.863,24.273 12.863,25.919 C12.863,27.566 11.525,28.904 9.883,28.904 L9.883,28.903 Z M32.033,28.903 C30.388,28.903 29.053,27.566 29.053,25.919 C29.053,24.273 30.388,22.935 32.033,22.935 C33.675,22.935 35.013,24.273 35.013,25.919 C35.013,27.566 33.675,28.904 32.033,28.904 L32.033,28.903 Z M37.849,23.243 L35.703,23.243 C34.873,22.106 33.539,21.363 32.031,21.363 C30.521,21.363 29.186,22.106 28.359,23.243 L13.555,23.243 C12.725,22.106 11.391,21.363 9.883,21.363 C8.373,21.363 7.038,22.106 6.211,23.243 L3.755,23.243 L3.755,20.723 L27.127,20.723 C27.561,20.723 27.912,20.373 27.912,19.938 L27.912,15.29 L37.152,15.29 L37.152,19.937 C37.152,20.341 37.458,20.674 37.852,20.717 L37.852,23.24 L37.849,23.243 Z" id="Shape"></path>
                    <path d="M32.03,24.894 C31.467,24.894 31.007,25.354 31.007,25.92 C31.007,26.486 31.467,26.947 32.031,26.947 C32.597,26.947 33.057,26.487 33.057,25.92 C33.057,25.354 32.597,24.894 32.032,24.894 M9.882,24.894 C9.318,24.894 8.857,25.354 8.857,25.92 C8.857,26.486 9.317,26.947 9.882,26.947 C10.448,26.947 10.907,26.487 10.907,25.92 C10.907,25.354 10.447,24.894 9.882,24.894 M29.68,2.606 L29.685,2.606 C31.683,2.606 33.485,4.993 33.503,5.018 C33.656,5.225 33.893,5.334 34.133,5.334 C34.296,5.334 34.459,5.284 34.599,5.179 C34.946,4.919 35.019,4.429 34.761,4.081 C34.671,3.956 32.477,1.034 29.684,1.034 L29.677,1.034 C29.244,1.034 28.894,1.386 28.895,1.821 C28.895,2.254 29.245,2.605 29.679,2.605" id="Shape"></path>
                </g>
            </g>
            <g id="cart" transform="translate(1.000000, 51.000000)" fill="#FFFFFF">
                <g id="Group">
                    <path d="M31.428,30.155 L20.915,33.07 C20.145,31.472 18.513,30.363 16.622,30.363 C16.402,30.363 16.186,30.383 15.972,30.413 L7.762,0.813 C7.642,0.393 7.207,0.146 6.786,0.263 C6.364,0.378 6.118,0.815 6.234,1.237 L7.29,5.044 L1.113,5.044 C0.675,5.044 0.323,5.398 0.323,5.836 C0.323,6.274 0.675,6.628 1.113,6.628 L7.57,6.628 C7.625,6.628 7.67,6.608 7.722,6.598 L14.459,30.888 C12.915,31.678 11.853,33.28 11.853,35.128 C11.853,37.758 13.993,39.896 16.621,39.896 C19.249,39.896 21.388,37.758 21.388,35.129 C21.388,34.947 21.375,34.769 21.355,34.593 L31.85,31.681 C32.272,31.564 32.518,31.127 32.4,30.705 C32.284,30.285 31.847,30.04 31.426,30.155 L31.428,30.155 Z M16.622,38.312 C14.866,38.312 13.438,36.884 13.438,35.129 C13.438,33.374 14.866,31.946 16.622,31.946 C18.377,31.946 19.805,33.374 19.805,35.128 C19.805,36.882 18.377,38.31 16.622,38.31 L16.622,38.312 Z" id="Shape"></path>
                    <path d="M35.744,25.244 L31.484,9.886 C31.426,9.684 31.294,9.511 31.11,9.408 C30.926,9.304 30.71,9.278 30.508,9.334 L15.15,13.594 C14.73,13.712 14.482,14.149 14.6,14.57 L18.86,29.928 C18.957,30.278 19.276,30.508 19.622,30.508 C19.692,30.508 19.764,30.498 19.835,30.478 L35.192,26.218 C35.394,26.162 35.567,26.028 35.67,25.846 C35.774,25.663 35.8,25.446 35.744,25.244 L35.744,25.244 Z M20.174,28.741 L16.337,14.911 L30.167,11.073 L34.007,24.905 L20.174,28.742 L20.174,28.741 Z" id="Shape"></path>
                    <path d="M25.238,18.422 C25.328,18.457 25.421,18.472 25.513,18.472 C25.833,18.472 26.137,18.275 26.255,17.956 L26.38,17.62 L27.598,21.97 C27.698,22.32 28.015,22.55 28.361,22.55 C28.433,22.55 28.505,22.54 28.576,22.52 C28.996,22.402 29.243,21.965 29.126,21.544 L27.906,17.194 L28.186,17.416 C28.531,17.688 29.029,17.629 29.299,17.286 C29.571,16.943 29.513,16.446 29.171,16.174 L26.979,14.438 C26.781,14.281 26.519,14.228 26.273,14.298 C26.029,14.365 25.833,14.546 25.743,14.784 L24.771,17.404 C24.619,17.814 24.828,18.27 25.239,18.422" id="Shape"></path>
                    <path d="M22.865,23.298 C22.963,23.648 23.281,23.878 23.625,23.878 C23.698,23.878 23.77,23.868 23.841,23.848 C24.263,23.73 24.509,23.292 24.391,22.871 L23.171,18.521 L23.453,18.743 C23.796,19.015 24.295,18.956 24.566,18.613 C24.836,18.27 24.779,17.771 24.436,17.5 L22.244,15.764 C22.046,15.606 21.784,15.554 21.539,15.622 C21.295,15.69 21.099,15.872 21.009,16.11 L20.039,18.73 C19.886,19.14 20.095,19.596 20.505,19.75 C20.595,19.782 20.689,19.798 20.78,19.798 C21.102,19.798 21.403,19.601 21.522,19.282 L21.646,18.947 L22.866,23.297 M22.726,24.726 C22.304,24.844 22.058,25.281 22.176,25.702 C22.274,26.052 22.592,26.282 22.938,26.282 C23.01,26.282 23.082,26.272 23.152,26.252 L30.412,24.219 C30.834,24.101 31.079,23.663 30.962,23.242 C30.842,22.822 30.402,22.576 29.985,22.692 L22.725,24.725 M16.622,33.77 C15.872,33.77 15.262,34.38 15.262,35.13 C15.262,35.88 15.872,36.49 16.622,36.49 C17.372,36.49 17.982,35.88 17.982,35.13 C17.982,34.38 17.372,33.77 16.622,33.77" id="Shape"></path>
                </g>
            </g>
            <g id="earth" transform="translate(1.000000, 111.000000)" fill="#FFFFFF">
                <path d="M36.223,18 C36.223,8.142 28.206,0.113 18.313,0.005 C18.276,0.005 18.241,0 18.203,0 L18.203,0.002 L18.114,9.94863913e-16 L18.064,9.94863913e-16 L18.004,0.003 C8.066,0.06 0,8.11 0,18 C0,27.89 8.066,35.938 18.003,35.997 L18.063,36 L18.113,36 L18.203,35.998 L18.203,36 C18.241,36 18.276,35.996 18.313,35.995 C28.206,35.887 36.223,27.858 36.223,18 L36.223,18 Z M1.487,18.73 L8.647,18.73 C8.694,21.08 8.967,23.3 9.427,25.318 L3.19,25.318 C2.19,23.315 1.59,21.086 1.485,18.728 L1.487,18.73 Z M34.737,17.27 L27.617,17.27 C27.572,14.964 27.31,12.783 26.867,10.796 L33.091,10.796 C34.056,12.769 34.635,14.958 34.737,17.27 Z M26.15,17.27 L18.846,17.27 L18.846,10.796 L25.334,10.796 C25.81,12.779 26.098,14.971 26.15,17.27 Z M18.846,9.337 L18.846,1.52 C21.383,1.966 23.626,5.01 24.938,9.337 L18.846,9.337 Z M17.378,1.527 L17.378,9.337 L11.328,9.337 C12.633,5.035 14.858,1.999 17.378,1.527 Z M17.378,10.797 L17.378,17.27 L10.116,17.27 C10.166,14.97 10.456,12.78 10.931,10.796 L17.379,10.796 L17.378,10.797 Z M8.648,17.27 L1.488,17.27 C1.588,14.958 2.168,12.77 3.132,10.796 L9.398,10.796 C8.956,12.783 8.694,14.964 8.648,17.27 Z M10.116,18.73 L17.378,18.73 L17.378,25.318 L10.96,25.318 C10.468,23.305 10.168,21.072 10.116,18.728 L10.116,18.73 Z M17.378,26.777 L17.378,34.472 C14.881,34.005 12.673,31.019 11.363,26.777 L17.378,26.777 Z M18.846,34.479 L18.846,26.776 L24.902,26.776 C23.585,31.041 21.362,34.038 18.846,34.478 L18.846,34.479 Z M18.846,25.317 L18.846,18.727 L26.15,18.727 C26.098,21.071 25.797,23.304 25.305,25.317 L18.845,25.317 L18.846,25.317 Z M27.616,18.727 L34.736,18.727 C34.633,21.085 34.03,23.314 33.032,25.317 L26.84,25.317 C27.3,23.299 27.57,21.079 27.617,18.727 L27.616,18.727 Z M32.282,9.337 L26.502,9.337 C25.632,6.253 24.308,3.739 22.688,2.099 C26.718,3.247 30.128,5.866 32.282,9.336 L32.282,9.337 Z M13.595,2.082 C11.967,3.722 10.635,6.242 9.765,9.336 L3.94,9.336 C6.107,5.849 9.54,3.221 13.595,2.082 L13.595,2.082 Z M4.015,26.776 L9.8,26.776 C10.67,29.816 11.988,32.296 13.595,33.916 C9.585,32.79 6.185,30.206 4.015,26.776 L4.015,26.776 Z M22.688,33.9 C24.288,32.28 25.598,29.807 26.468,26.777 L32.208,26.777 C30.048,30.19 26.673,32.765 22.688,33.9 Z" id="Shape"></path>
            </g>
            <g id="list" transform="translate(1.000000, 167.000000)" fill="#FFFFFF">
                <g id="Group">
                    <path d="M25.85,5.46 L21.336,1.014 C21.01,0.694 20.58,0.52 20.126,0.52 L2.252,0.52 C1.303,0.52 0.53,1.29 0.53,2.24 L0.53,31.017 C0.53,31.967 1.302,32.741 2.253,32.741 L24.638,32.741 C25.588,32.741 26.364,31.968 26.364,31.018 L26.364,6.685 C26.364,6.227 26.176,5.78 25.85,5.459 L25.85,5.46 Z M24.593,6.04 L20.777,6.04 L20.773,2.278 L24.593,6.038 L24.593,6.04 Z M24.638,31.446 L2.253,31.446 C2.017,31.446 1.823,31.254 1.823,31.016 L1.823,2.242 C1.823,2.007 2.017,1.815 2.253,1.815 L19.477,1.815 L19.482,6.689 C19.482,7.046 19.772,7.335 20.13,7.335 L25.068,7.335 L25.068,31.019 C25.068,31.256 24.875,31.449 24.638,31.449 L24.638,31.446 Z" id="Shape"></path>
                    <path d="M21.52,23.182 L10.934,23.182 C10.576,23.182 10.286,23.472 10.286,23.829 C10.286,24.185 10.576,24.475 10.934,24.475 L21.52,24.475 C21.877,24.475 22.167,24.185 22.167,23.828 C22.167,23.468 21.877,23.18 21.52,23.18 M21.52,17.552 L10.934,17.552 C10.576,17.552 10.286,17.842 10.286,18.199 C10.286,18.556 10.576,18.845 10.934,18.845 L21.52,18.845 C21.877,18.845 22.167,18.555 22.167,18.198 C22.167,17.838 21.877,17.55 21.52,17.55 M21.52,11.923 L10.934,11.923 C10.576,11.923 10.286,12.213 10.286,12.57 C10.286,12.927 10.576,13.217 10.934,13.217 L21.52,13.217 C21.877,13.217 22.167,12.927 22.167,12.57 C22.167,12.212 21.877,11.923 21.52,11.923 M7.53,11.023 L5.727,11.023 C5.369,11.023 5.079,11.313 5.079,11.67 L5.079,13.47 C5.079,13.827 5.369,14.116 5.727,14.116 L7.527,14.116 C7.887,14.116 8.177,13.826 8.177,13.469 L8.177,11.669 C8.177,11.312 7.887,11.022 7.527,11.022 M7.53,16.653 L5.727,16.653 C5.369,16.653 5.079,16.943 5.079,17.3 L5.079,19.1 C5.079,19.456 5.369,19.746 5.727,19.746 L7.527,19.746 C7.887,19.746 8.177,19.456 8.177,19.099 L8.177,17.299 C8.177,16.941 7.887,16.652 7.527,16.652 M7.53,22.282 L5.727,22.282 C5.369,22.282 5.079,22.572 5.079,22.929 L5.079,24.729 C5.079,25.085 5.369,25.375 5.727,25.375 L7.527,25.375 C7.887,25.375 8.177,25.085 8.177,24.728 L8.177,22.928 C8.177,22.57 7.887,22.28 7.527,22.28" id="Shape"></path>
                </g>
            </g>
            <g id="Page-1" transform="translate(0.000000, 222.000000)">
                <path d="M145.887617,28.4048739 L145.887617,15.3484034 L145.881211,15.2442017 C145.679576,13.6378151 144.30286,12.4253782 142.678315,12.4253782 L133.202139,12.4253782 C133.326559,11.9742857 133.396693,11.5006723 133.396693,11.0105882 L131.711793,11.0105882 C131.711793,12.2811765 131.060693,13.402521 130.073423,14.0613445 L130.073423,15.9564706 C131.013825,15.5689076 131.818005,14.9208403 132.401331,14.1053782 L142.678315,14.1053782 C143.439335,14.1053782 144.086051,14.6613445 144.203054,15.4062185 L144.203054,28.4048739 C144.203054,29.254958 143.507783,29.9678992 142.655723,29.9678992 L142.655723,31.647563 C144.436721,31.647563 145.887617,30.1810084 145.887617,28.4048739 Z" id="Fill-1" fill="#3E3A39"></path>
                <mask id="mask-2" fill="white">
                    <use xlink:href="#path-1"></use>
                </mask>
                <g id="Clip-4"></g>
                <path d="M84.8560092,25.2006723 L87.6644018,25.2006723 L87.6644018,22.0221849 L84.8560092,22.0221849 L84.8560092,25.2006723 Z M84.8556721,15.6205042 L87.6640647,15.6205042 L87.6640647,13.069916 L84.8556721,13.069916 L84.8556721,15.6205042 Z M84.8560092,20.342521 L87.6644018,20.342521 L87.6644018,17.3001681 L84.8560092,17.3001681 L84.8560092,20.342521 Z M94.604291,23.5347899 C96.6155843,19.7828571 96.5899584,15.9818487 96.5899584,14.3448739 C96.5899584,12.227563 95.0392564,11.4897479 94.2195658,11.3952941 L90.3760231,11.389916 L90.3760231,13.069916 L94.0631132,13.069916 C94.2428314,13.1021849 94.9050577,13.2941176 94.9050577,14.3448739 C94.9050577,15.7468908 94.9033718,18.6215126 93.6729931,21.5973109 C92.3394365,18.1512605 92.5579307,14.8268908 92.5613025,14.7734454 L90.8797737,14.6628571 C90.8740416,14.7532773 90.738157,16.9085714 91.3093441,19.6080672 C91.6080878,21.0198319 92.0464249,22.3573109 92.6587483,23.5784874 C92.0063002,24.627563 91.1660416,25.6507563 90.0793025,26.5872269 L90.0793025,25.7727731 C90.0793025,25.4568067 89.8223695,25.2006723 89.5057552,25.2006723 L89.3489654,25.2006723 L89.3489654,13.069916 L90.0793025,13.069916 L90.0793025,11.9620168 L90.0793025,11.9613445 C90.0793025,11.6460504 89.8223695,11.389916 89.5057552,11.389916 L82.4154827,11.389916 L82.4154827,13.069916 L83.1711085,13.069916 L83.1711085,25.2006723 L82.4154827,25.2006723 L82.4154827,26.8806723 L87.6640647,26.8806723 L87.6640647,28.6541176 L88.775418,28.6541176 C89.0920323,28.6541176 89.3489654,28.3976471 89.3489654,28.0820168 L89.3489654,26.8806723 L90.0793025,26.8806723 L90.0793025,28.6541176 C91.56594,27.5845378 92.7106744,26.3902521 93.5957783,25.154958 C94.4673949,26.3912605 95.5811085,27.4544538 96.993903,28.2803361 L96.993903,26.4087395 C95.986739,25.5546218 95.2091963,24.5663866 94.604291,23.5347899 L94.604291,23.5347899 Z" id="Fill-3" fill="#3E3A39" mask="url(#mask-2)"></path>
                <path d="M71.1462046,12.5718319 L61.3294748,12.5718319 L61.3294748,11.0104874 L59.6445741,11.0104874 L59.6445741,12.5718319 L49.254297,12.5718319 L49.254297,14.2518319 L59.6445741,14.2518319 L59.6445741,19.4773782 L49.254297,19.4773782 L49.254297,21.157042 L59.6445741,21.157042 L59.6445741,26.3829244 L49.254297,26.3829244 L49.254297,28.0625882 L59.6445741,28.0625882 L59.6445741,31.4525042 L60.7559275,31.4525042 C61.0725418,31.4525042 61.3294748,31.197042 61.3294748,30.8814118 L61.3294748,28.0625882 L71.719752,28.0625882 L71.719752,26.9472941 C71.719752,26.6558655 71.5002462,26.4185546 71.2173501,26.3829244 L61.3294748,26.3829244 L61.3294748,21.157042 L71.719752,21.157042 L71.719752,20.0474622 L71.719752,20.0467899 C71.719752,19.7375462 71.4725972,19.4874622 71.1647497,19.4773782 L61.3294748,19.4773782 L61.3294748,14.2518319 L71.719752,14.2518319 L71.719752,13.1439328 L71.719752,13.1435966 C71.719752,12.8279664 71.4628189,12.5718319 71.1462046,12.5718319" id="Fill-5" fill="#3E3A39" mask="url(#mask-2)"></path>
                <path d="M120.885572,12.615563 C120.873434,12.615563 120.865341,12.6138824 120.858598,12.610521 L108.72475,12.5752269 C108.877157,12.0797647 108.960441,11.5547227 108.960441,11.010521 L107.27554,11.010521 C107.27554,12.2811092 106.623766,13.4024538 105.636833,14.0616134 L105.636833,15.9564034 C106.519914,15.5923697 107.282958,14.9987563 107.855831,14.2525378 L121.453725,14.2922017 L121.457097,13.1722017 C121.44833,12.8636303 121.196455,12.615563 120.885572,12.615563" id="Fill-6" fill="#3E3A39" mask="url(#mask-2)"></path>
                <path d="M118.866591,28.4048739 C118.866591,29.1006723 118.29945,29.6721008 117.601483,29.6798319 L108.590282,29.6798319 C107.890965,29.6741176 107.321801,29.1016807 107.321801,28.4052101 L107.321801,24.329916 L112.251746,24.329916 L112.251746,27.2536134 L113.362762,27.2536134 C113.679714,27.2536134 113.936647,26.9981513 113.936647,26.682521 L113.936647,24.329916 L118.866591,24.329916 L118.866591,28.4048739 Z M107.321801,19.4468908 C107.321801,18.7436975 107.896023,18.1712605 108.602083,18.1712605 L117.586309,18.1712605 C118.29237,18.1712605 118.866591,18.7436975 118.866591,19.4472269 L118.866591,22.6502521 L113.936647,22.6502521 L113.936647,19.7258824 L112.251746,19.7258824 L112.251746,22.6502521 L107.321801,22.6502521 L107.321801,19.4468908 Z M120.869455,22.6502521 L120.551492,22.6502521 L120.551492,19.4472269 C120.551492,17.8173109 119.221307,16.4915966 117.586309,16.4915966 L108.602083,16.4915966 C106.96776,16.4915966 105.637575,17.8173109 105.636901,19.4468908 L105.636901,22.6502521 L104.746065,22.6502521 L104.746065,24.329916 L105.636901,24.329916 L105.636901,28.4052101 C105.637575,30.0193277 106.955284,31.3447059 108.582527,31.3594958 L117.609575,31.3594958 L117.613621,31.3594958 C119.233109,31.3447059 120.551492,30.0189916 120.551492,28.4048739 L120.551492,24.329916 L121.442328,24.329916 L121.442328,23.2213445 C121.442328,22.9060504 121.186069,22.6502521 120.869455,22.6502521 L120.869455,22.6502521 Z" id="Fill-7" fill="#3E3A39" mask="url(#mask-2)"></path>
                <path d="M103.190878,11.658084 C103.168624,11.658084 103.157834,11.6510252 103.156823,11.6392605 L99.0529751,11.6392605 L99.0529751,13.3185882 L103.764425,13.3185882 L103.764425,12.2301849 L103.764425,12.2298487 C103.764425,11.9142185 103.50783,11.658084 103.190878,11.658084" id="Fill-8" fill="#3E3A39" mask="url(#mask-2)"></path>
                <path d="M103.190878,19.9951597 L99.0529751,19.9951597 L99.0529751,21.6751597 L103.764425,21.6751597 L103.764425,20.5672605 C103.764425,20.2516303 103.50783,19.9951597 103.190878,19.9951597" id="Fill-9" fill="#3E3A39" mask="url(#mask-2)"></path>
                <path d="M103.344431,29.26 L99.0531099,29.26 L99.0531099,30.9396639 L103.764223,30.9396639 L103.764223,29.8082353 C103.764223,29.5460504 103.586191,29.3272269 103.344431,29.26" id="Fill-10" fill="#3E3A39" mask="url(#mask-2)"></path>
                <path d="M128.215683,11.658084 C128.194777,11.658084 128.18365,11.6510252 128.179604,11.6392605 L124.077105,11.6392605 L124.077105,13.3185882 L128.78923,13.3185882 L128.78923,12.2301849 L128.78923,12.2298487 C128.78923,11.9142185 128.532297,11.658084 128.215683,11.658084" id="Fill-11" fill="#3E3A39" mask="url(#mask-2)"></path>
                <path d="M141.977852,16.8333445 L133.559755,16.8333445 C133.621459,16.5435966 133.657875,16.2441008 133.657875,15.9362017 L131.972637,15.9362017 C131.972637,17.0168739 131.315806,17.9462857 130.380461,18.3523361 L130.380461,20.1210756 C131.359976,19.8767059 132.206304,19.2965378 132.794351,18.5133445 L135.618591,18.5133445 L135.603418,21.9657815 L130.567261,21.9657815 L130.567261,23.6454454 L135.596337,23.6454454 L135.57442,28.6847731 L133.017903,28.6847731 C132.750517,28.6847731 132.533709,28.4683025 132.533709,28.2017479 L132.533709,25.1072941 L130.849145,25.1072941 L130.849145,28.2017479 C130.849145,29.3940168 131.821916,30.364437 133.017903,30.364437 L139.412568,30.364437 C140.608554,30.364437 141.582,29.3940168 141.582,28.2014118 L141.582,25.1072941 L139.897099,25.1072941 L139.897099,28.2017479 C139.897099,28.4683025 139.679953,28.6847731 139.412568,28.6847731 L137.259321,28.6847731 L137.281237,23.6454454 L142.36224,23.6454454 L142.36224,22.5378824 C142.36224,22.221916 142.105307,21.9657815 141.78903,21.9657815 L137.288655,21.9657815 L137.303829,18.5133445 L142.36224,18.5133445 L142.36224,17.3708235 L142.36224,17.3704874 C142.36224,17.1217479 142.201404,16.912 141.977852,16.8333445" id="Fill-12" fill="#3E3A39" mask="url(#mask-2)"></path>
                <path d="M128.215683,19.9951597 L124.077105,19.9951597 L124.077105,21.6751597 L128.78923,21.6751597 L128.78923,20.5672605 C128.78923,20.2516303 128.532297,19.9951597 128.215683,19.9951597" id="Fill-13" fill="#3E3A39" mask="url(#mask-2)"></path>
                <path d="M128.368865,29.26 L124.077206,29.26 L124.077206,30.9396639 L128.788994,30.9396639 L128.788994,29.8082353 C128.788994,29.5460504 128.610624,29.3272269 128.368865,29.26" id="Fill-14" fill="#3E3A39" mask="url(#mask-2)"></path>
                <path d="M96.4201533,29.7965714 C96.3904813,29.7965714 96.3773312,29.7811092 96.3705875,29.7592605 L79.4892111,29.7592605 L79.4892111,24.7034622 L82.0163935,24.7034622 L82.0163935,23.5948908 C82.0163935,23.2795966 81.7597977,23.0234622 81.4431834,23.0234622 L79.4892111,23.0234622 L79.4892111,19.3532101 L82.0163935,19.3532101 L82.0163935,18.2500168 L82.0163935,18.2493445 C82.0163935,17.9337143 81.7597977,17.6782521 81.4431834,17.6782521 C81.4327307,17.6782521 81.4243012,17.6762353 81.416546,17.6735462 L79.4892111,17.6735462 L79.4892111,14.2516975 L82.0163935,14.2516975 L82.0163935,13.1575798 C82.0157192,13.1532101 82.0147076,13.1491765 82.0147076,13.1434622 C82.0147076,12.8278319 81.7581118,12.5716975 81.4411603,12.5716975 L79.4892111,12.5716975 L79.4892111,11.0103529 L77.8043104,11.0103529 L77.8043104,12.5716975 L74.3529109,12.5716975 L74.3529109,14.2516975 L77.8043104,14.2516975 L77.8043104,17.6735462 L74.3529109,17.6735462 L74.3529109,19.3532101 L77.8043104,19.3532101 L77.8043104,29.6543866 C77.2260425,29.4348908 76.8126568,28.8826218 76.8069247,28.2311933 C76.8069247,28.2268235 76.8075991,28.2224538 76.8075991,28.218084 L76.805576,28.218084 L76.805576,21.6795966 L75.1206753,21.6795966 L75.1206753,28.218084 C75.1206753,28.2227899 75.1213497,28.2274958 75.1213497,28.2322017 C75.1135945,28.9293445 74.5434189,29.4943866 73.8424166,29.4943866 L73.8424166,31.1740504 C74.6492942,31.1740504 75.380643,30.8503529 75.9157515,30.3273277 C76.5085182,31.0066555 77.3794605,31.4385882 78.3512203,31.4385882 L78.3512203,31.4389244 L96.9937007,31.4389244 L96.9937007,30.368 C96.9937007,30.0523697 96.7367677,29.7965714 96.4201533,29.7965714" id="Fill-15" fill="#3E3A39" mask="url(#mask-2)"></path>
                <path d="M39.8422199,19.8588908 C39.8422199,30.8266218 30.9230697,39.7180504 19.9214808,39.7180504 C8.91921755,39.7180504 6.74364896e-05,30.8266218 6.74364896e-05,19.8588908 C6.74364896e-05,8.89048739 8.91921755,6.72268908e-05 19.9214808,6.72268908e-05 C30.9230697,6.72268908e-05 39.8422199,8.89048739 39.8422199,19.8588908" id="Fill-16" fill="#CA2B1D" mask="url(#mask-2)"></path>
                <path d="M25.8752462,34.6565042 C24.7945764,34.6565042 23.9152046,33.7798655 23.9152046,32.7025546 L23.9152046,29.3650756 C23.9152046,29.0615462 24.1623594,28.8151597 24.4671723,28.8151597 C24.771648,28.8151597 25.0188028,29.0615462 25.0188028,29.3650756 L25.0188028,32.7025546 C25.0188028,33.173479 25.4028536,33.5563361 25.8752462,33.5563361 C26.3476388,33.5563361 26.732364,33.173479 26.732364,32.7025546 C26.732364,32.3986891 26.9791815,32.1523025 27.2839945,32.1523025 C27.5888074,32.1523025 27.8356249,32.3986891 27.8356249,32.7025546 C27.8356249,33.7798655 26.9562531,34.6565042 25.8752462,34.6565042" id="Fill-17" fill="#FEFEFE" mask="url(#mask-2)"></path>
                <path d="M28.364327,19.4041008 C28.0595141,19.4041008 27.8126965,19.1577143 27.8126965,18.8541849 C27.8126965,18.284437 27.3477219,17.8212437 26.7768721,17.8212437 C26.2053478,17.8212437 25.7407104,18.284437 25.7407104,18.8541849 C25.7407104,19.1577143 25.4935557,19.4041008 25.1887427,19.4041008 C24.884267,19.4041008 24.6371122,19.1577143 24.6371122,18.8541849 C24.6371122,17.6780504 25.5970707,16.7210756 26.7768721,16.7210756 C27.9563363,16.7210756 28.9162947,17.6780504 28.9162947,18.8541849 C28.9162947,19.1577143 28.66914,19.4041008 28.364327,19.4041008" id="Fill-18" fill="#FEFEFE" mask="url(#mask-2)"></path>
                <path d="M14.6813284,19.4041008 C14.3765155,19.4041008 14.1296979,19.1577143 14.1296979,18.8541849 C14.1296979,18.284437 13.6647233,17.8212437 13.0938734,17.8212437 C12.5223492,17.8212437 12.0577118,18.284437 12.0577118,18.8541849 C12.0577118,19.1577143 11.810557,19.4041008 11.5057441,19.4041008 C11.2012684,19.4041008 10.9541136,19.1577143 10.9541136,18.8541849 C10.9541136,17.6780504 11.9140721,16.7210756 13.0938734,16.7210756 C14.2733376,16.7210756 15.2329589,17.6780504 15.2329589,18.8541849 C15.2329589,19.1577143 14.9861413,19.4041008 14.6813284,19.4041008" id="Fill-19" fill="#FEFEFE" mask="url(#mask-2)"></path>
                <path d="M18.4053737,34.6624538 C18.1005607,34.6624538 17.8537432,34.4160672 17.8537432,34.1125378 L17.8537432,30.1814454 C17.8537432,29.8775798 18.1005607,29.6311933 18.4053737,29.6311933 C18.7101866,29.6311933 18.9570042,29.8775798 18.9570042,30.1814454 L18.9570042,34.1125378 C18.9570042,34.4160672 18.7101866,34.6624538 18.4053737,34.6624538" id="Fill-20" fill="#FEFEFE" mask="url(#mask-2)"></path>
                <path d="M21.4362055,34.6624538 C21.1313926,34.6624538 20.8845751,34.4160672 20.8845751,34.1125378 L20.8845751,30.1814454 C20.8845751,29.8775798 21.1313926,29.6311933 21.4362055,29.6311933 C21.7410185,29.6311933 21.987836,29.8775798 21.987836,30.1814454 L21.987836,34.1125378 C21.987836,34.4160672 21.7410185,34.6624538 21.4362055,34.6624538" id="Fill-21" fill="#FEFEFE" mask="url(#mask-2)"></path>
                <path d="M14.0146176,34.6565042 C12.9605852,34.6565042 12.1027931,33.8017143 12.1027931,32.7506218 C12.1027931,32.4470924 12.3499478,32.2007059 12.6544236,32.2007059 C12.9592365,32.2007059 13.2063912,32.4470924 13.2063912,32.7506218 C13.2063912,33.1949916 13.5688624,33.5563361 14.0146176,33.5563361 C14.4603727,33.5563361 14.8231811,33.1949916 14.8231811,32.7506218 L14.8231811,29.3654118 C14.8231811,29.0615462 15.0699986,28.8154958 15.3748115,28.8154958 C15.6796245,28.8154958 15.926442,29.0615462 15.926442,29.3654118 L15.926442,32.7506218 C15.926442,33.8017143 15.0689871,34.6565042 14.0146176,34.6565042" id="Fill-22" fill="#FEFEFE" mask="url(#mask-2)"></path>
                <path d="M19.9350693,20.8847059 C18.8999192,20.8847059 18.0579746,21.7240336 18.0579746,22.7559664 C18.0579746,23.787563 18.8999192,24.6272269 19.9350693,24.6272269 C20.9698822,24.6272269 21.812164,23.787563 21.812164,22.7559664 C21.812164,21.7240336 20.9698822,20.8847059 19.9350693,20.8847059 M19.9350693,25.727395 C18.291642,25.727395 16.9543764,24.3942857 16.9543764,22.7559664 C16.9543764,21.1176471 18.291642,19.7845378 19.9350693,19.7845378 C21.5784965,19.7845378 22.9154249,21.1176471 22.9154249,22.7559664 C22.9154249,24.3942857 21.5784965,25.727395 19.9350693,25.727395" id="Fill-23" fill="#FEFEFE" mask="url(#mask-2)"></path>
                <path d="M24.6703247,29.8770084 L24.2636827,28.8544874 C28.792043,27.065916 31.7181122,22.7724706 31.7181122,17.9163361 C31.7181122,11.4312941 26.4260337,6.15566387 19.9211099,6.15566387 C13.4161861,6.15566387 8.12377044,11.4312941 8.12377044,17.9163361 C8.12377044,22.7721345 11.0495025,27.0655798 15.5778628,28.8541513 L15.1712208,29.8766723 C12.7944217,28.9378487 10.7662693,27.3297815 9.30559492,25.2262521 C7.81052794,23.0726387 7.02050947,20.5449076 7.02050947,17.9163361 C7.02050947,10.8249076 12.8075718,5.0554958 19.9211099,5.0554958 C27.034648,5.0554958 32.8217104,10.8249076 32.8217104,17.9163361 C32.8217104,20.5449076 32.0313547,23.0726387 30.5362878,25.2265882 C29.0756134,27.3301176 27.047461,28.9381849 24.6703247,29.8770084" id="Fill-24" fill="#FEFEFE" mask="url(#mask-2)"></path>
            </g>
            <g id="Page-1" transform="translate(2.000000, 281.000000)">
                <path d="M145.465235,7.28741042 C145.264089,5.68230625 143.889388,4.47066042 142.267121,4.47066042 L132.80529,4.47066042 C132.929469,4.01980625 132.999295,3.54638958 132.999295,3.05674375 L131.317121,3.05674375 C131.317121,4.32657708 130.666866,5.44718125 129.681366,6.10545208 L129.681366,7.99951458 C130.620051,7.61199375 131.423051,6.96441042 132.005464,6.14978542 L142.267121,6.14978542 C143.027273,6.14978542 143.672768,6.70513958 143.789806,7.44930625 L143.789806,20.4393688 L143.787822,20.4393688 C143.787822,21.2892229 143.095513,22.0013271 142.244904,22.0013271 L142.244904,23.6800563 C144.023089,23.6800563 145.469996,22.2142854 145.469996,20.4393688 L145.471583,20.4393688 L145.471583,7.39151458 L145.465235,7.28741042 Z" id="Fill-1" fill="#3E3A39"></path>
                <mask id="mask-4" fill="white">
                    <use xlink:href="#path-3"></use>
                </mask>
                <g id="Clip-4"></g>
                <path d="M84.5312228,17.2373542 L87.335375,17.2373542 L87.335375,14.0607917 L84.5312228,14.0607917 L84.5312228,17.2373542 Z M84.5312228,7.66372917 L87.335375,7.66372917 L87.335375,5.11495833 L84.5312228,5.11495833 L84.5312228,7.66372917 Z M84.5312228,12.3820625 L87.335375,12.3820625 L87.335375,9.3420625 L84.5312228,9.3420625 L84.5312228,12.3820625 Z M94.2648207,15.5724792 C96.2731141,11.8231458 96.2477228,8.02472917 96.2477228,6.38875 C96.2477228,4.27302083 94.69925,3.53558333 93.8807772,3.44097917 L90.0431196,3.43583333 L90.0431196,5.1145625 L93.724462,5.1145625 C93.9041848,5.14702083 94.5655489,5.33860417 94.5655489,6.38875 C94.5655489,7.79 94.5635652,10.6625625 93.3352609,13.6364583 C92.0034076,10.1927083 92.2216141,6.87047917 92.224788,6.81704167 L90.545788,6.70660417 C90.5402337,6.79685417 90.4045489,8.95097917 90.9750598,11.6481875 C91.2734076,13.0589375 91.7110109,14.3960625 92.3223859,15.6164167 C91.6709402,16.6645833 90.831837,17.6874167 89.7467554,18.6227708 L89.7467554,17.8089375 C89.7467554,17.4934583 89.4900652,17.2373542 89.1742609,17.2373542 L89.0175489,17.2373542 L89.0175489,5.1145625 L89.7467554,5.1145625 L89.7467554,4.00741667 L89.7467554,4.006625 C89.7467554,3.69154167 89.4900652,3.43583333 89.1742609,3.43583333 L82.0944511,3.43583333 L82.0944511,5.1145625 L82.8486522,5.1145625 L82.8486522,17.2373542 L82.0944511,17.2373542 L82.0944511,18.9160833 L87.335375,18.9160833 L87.335375,20.688625 L88.4446576,20.688625 C88.7612554,20.688625 89.0175489,20.432125 89.0175489,20.1166458 L89.0175489,18.9160833 L89.7467554,18.9160833 L89.7467554,20.688625 C91.2313533,19.6194792 92.373962,18.4260417 93.2582935,17.1918333 C94.1283424,18.4272292 95.2404022,19.4896458 96.6508098,20.3149583 L96.6508098,18.4446458 C95.6454728,17.5912292 94.8690543,16.6032292 94.2648207,15.5724792 L94.2648207,15.5724792 Z" id="Fill-3" fill="#3E3A39" mask="url(#mask-4)"></path>
                <path d="M70.8419375,4.61692083 L61.0397038,4.61692083 L61.0397038,3.05654583 L59.3575299,3.05654583 L59.3575299,4.61692083 L48.9824049,4.61692083 L48.9824049,6.29604583 L59.3575299,6.29604583 L59.3575299,11.5178792 L48.9824049,11.5178792 L48.9824049,13.1966083 L59.3575299,13.1966083 L59.3575299,18.4188375 L48.9824049,18.4188375 L48.9824049,20.0975667 L59.3575299,20.0975667 L59.3575299,23.4851083 L60.4672092,23.4851083 C60.7834103,23.4851083 61.0397038,23.2297958 61.0397038,22.9143167 L61.0397038,20.0975667 L71.4148288,20.0975667 L71.4148288,18.9829 C71.4148288,18.6915667 71.1954321,18.4544625 70.9129538,18.4188375 L61.0397038,18.4188375 L61.0397038,13.1966083 L71.4148288,13.1966083 L71.4148288,12.0874833 L71.4148288,12.0870875 C71.4148288,11.7775458 71.1680571,11.5281708 70.8605842,11.5178792 L61.0397038,11.5178792 L61.0397038,6.29604583 L71.4148288,6.29604583 L71.4148288,5.18850417 L71.4148288,5.18810833 C71.4148288,4.873025 71.1581386,4.61692083 70.8419375,4.61692083" id="Fill-5" fill="#3E3A39" mask="url(#mask-4)"></path>
                <path d="M120.507091,4.66062083 C120.495189,4.66062083 120.486857,4.6590375 120.480113,4.65587083 L108.364493,4.62024583 C108.516444,4.12545417 108.599759,3.60057917 108.599759,3.05670417 L106.917189,3.05670417 C106.917189,4.3265375 106.266536,5.44714167 105.281036,6.1054125 L105.281036,7.999475 C106.162591,7.63570417 106.924727,7.04235 107.496824,6.2966 L121.074428,6.33618333 L121.077602,5.21676667 C121.068873,4.90880833 120.817341,4.66062083 120.507091,4.66062083" id="Fill-6" fill="#3E3A39" mask="url(#mask-4)"></path>
                <path d="M118.491021,20.4394083 C118.491021,21.1348875 117.924478,21.7056792 117.227804,21.7135958 L108.230157,21.7135958 C107.531896,21.7076583 106.963369,21.1356792 106.963369,20.4398042 L106.963369,16.367075 L111.886108,16.367075 L111.886108,19.2887208 L112.995788,19.2887208 C113.311989,19.2887208 113.568282,19.0334083 113.568282,18.718325 L113.568282,16.367075 L118.491021,16.367075 L118.491021,20.4394083 Z M106.963369,11.4872417 C106.963369,10.7846375 107.537054,10.2126583 108.242059,10.2126583 L117.212728,10.2126583 C117.917733,10.2126583 118.491021,10.7846375 118.491021,11.4876375 L118.491021,14.6887417 L113.568282,14.6887417 L113.568282,11.7663042 L111.886108,11.7663042 L111.886108,14.6887417 L106.963369,14.6887417 L106.963369,11.4872417 Z M120.490586,14.6887417 L120.173592,14.6887417 L120.173592,11.4876375 C120.173592,9.85917917 118.845309,8.53392917 117.212728,8.53392917 L108.242059,8.53392917 C106.609874,8.53392917 105.281989,9.85917917 105.281195,11.4872417 L105.281195,14.6887417 L104.391309,14.6887417 L104.391309,16.367075 L105.281195,16.367075 L105.281195,20.4398042 C105.281989,22.052825 106.597576,23.3772833 108.222619,23.392325 L117.235739,23.392325 L117.239706,23.392325 C118.857211,23.3772833 120.173592,22.052825 120.173592,20.4394083 L120.173592,16.367075 L121.063081,16.367075 L121.063081,15.2595333 C121.063081,14.94445 120.807184,14.6887417 120.490586,14.6887417 L120.490586,14.6887417 Z" id="Fill-7" fill="#3E3A39" mask="url(#mask-4)"></path>
                <path d="M102.83875,3.70385208 C102.816533,3.70385208 102.805821,3.69672708 102.80463,3.68485208 L98.7071087,3.68485208 L98.7071087,5.36318542 L103.411245,5.36318542 L103.411245,4.27543542 L103.411245,4.27543542 C103.411245,3.95995625 103.154951,3.70385208 102.83875,3.70385208" id="Fill-8" fill="#3E3A39" mask="url(#mask-4)"></path>
                <path d="M102.83875,12.0353521 L98.7071087,12.0353521 L98.7071087,13.7140812 L103.411245,13.7140812 L103.411245,12.6069354 C103.411245,12.2918521 103.154951,12.0353521 102.83875,12.0353521" id="Fill-9" fill="#3E3A39" mask="url(#mask-4)"></path>
                <path d="M102.99209,21.2939729 L98.7073071,21.2939729 L98.7073071,22.9727021 L103.411443,22.9727021 L103.411443,21.8422021 C103.411443,21.5797646 103.233704,21.3612646 102.99209,21.2939729" id="Fill-10" fill="#3E3A39" mask="url(#mask-4)"></path>
                <path d="M127.826214,3.70385208 C127.805583,3.70385208 127.794078,3.69672708 127.79011,3.68485208 L123.693779,3.68485208 L123.693779,5.36318542 L128.398708,5.36318542 L128.398708,4.27543542 L128.398708,4.27543542 C128.398708,3.95995625 128.142415,3.70385208 127.826214,3.70385208" id="Fill-11" fill="#3E3A39" mask="url(#mask-4)"></path>
                <path d="M141.567829,8.8756125 L133.162117,8.8756125 C133.224008,8.5858625 133.260111,8.28700833 133.260111,7.97905 L131.577541,7.97905 C131.577541,9.05888333 130.921731,9.98790417 129.987807,10.3936333 L129.987807,12.1610292 C130.965769,11.9168 131.810823,11.3373 132.397997,10.5547375 L135.218019,10.5547375 L135.202943,14.0048208 L130.174274,14.0048208 L130.174274,15.6831542 L135.195802,15.6831542 L135.173981,20.7189458 L132.621361,20.7189458 C132.354356,20.7189458 132.137736,20.5028208 132.137736,20.236425 L132.137736,17.144175 L130.455563,17.144175 L130.455563,20.236425 C130.455563,21.4278833 131.427177,22.397675 132.621361,22.397675 L139.006481,22.397675 C140.200666,22.397675 141.172677,21.4278833 141.172677,20.2360292 L141.172677,17.144175 L139.490106,17.144175 L139.490106,20.236425 C139.490106,20.5028208 139.27309,20.7189458 139.006481,20.7189458 L136.856552,20.7189458 L136.878372,15.6831542 L141.951476,15.6831542 L141.951476,14.5764042 C141.951476,14.2605292 141.694785,14.0048208 141.379378,14.0048208 L136.885514,14.0048208 L136.90059,10.5547375 L141.951476,10.5547375 L141.951476,9.41275833 L141.951476,9.4123625 C141.951476,9.16377917 141.790796,8.95438333 141.567829,8.8756125" id="Fill-12" fill="#3E3A39" mask="url(#mask-4)"></path>
                <path d="M127.826214,12.0353521 L123.693779,12.0353521 L123.693779,13.7140812 L128.398708,13.7140812 L128.398708,12.6069354 C128.398708,12.2918521 128.142415,12.0353521 127.826214,12.0353521" id="Fill-13" fill="#3E3A39" mask="url(#mask-4)"></path>
                <path d="M127.979117,21.2939729 L123.693938,21.2939729 L123.693938,22.9727021 L128.39847,22.9727021 L128.39847,21.8422021 C128.39847,21.5797646 128.220334,21.3612646 127.979117,21.2939729" id="Fill-14" fill="#3E3A39" mask="url(#mask-4)"></path>
                <path d="M96.0781168,21.8302479 C96.0487582,21.8302479 96.035269,21.8148104 96.0289212,21.7926437 L79.1726658,21.7926437 L79.1726658,16.7406229 L81.6959266,16.7406229 L81.6959266,15.6326854 C81.6959266,15.3176021 81.4400299,15.0614979 81.1234321,15.0614979 L79.1726658,15.0614979 L79.1726658,11.3937062 L81.6959266,11.3937062 L81.6959266,10.2913104 L81.6959266,10.2909146 C81.6959266,9.97543542 81.4400299,9.72012292 81.1234321,9.72012292 C81.1131168,9.72012292 81.1047853,9.71814375 81.0968505,9.71537292 L79.1726658,9.71537292 L79.1726658,6.29576875 L81.6959266,6.29576875 L81.6959266,5.20247708 C81.6951332,5.19772708 81.6943397,5.19376875 81.6943397,5.18822708 C81.6943397,4.87274792 81.4380462,4.61703958 81.1214484,4.61703958 L79.1726658,4.61703958 L79.1726658,3.05666458 L77.4900951,3.05666458 L77.4900951,4.61703958 L74.0436223,4.61703958 L74.0436223,6.29576875 L77.4900951,6.29576875 L77.4900951,9.71537292 L74.0436223,9.71537292 L74.0436223,11.3937062 L77.4900951,11.3937062 L77.4900951,21.6881437 C76.9128397,21.4688521 76.500231,20.9170604 76.4942799,20.2659146 C76.4942799,20.2615604 76.4950734,20.2572062 76.4950734,20.2528521 L76.4930897,20.2528521 L76.4930897,13.7184354 L74.810519,13.7184354 L74.810519,20.2528521 C74.810519,20.2576021 74.8113125,20.2619562 74.8113125,20.2667062 C74.8033777,20.9633729 74.2340571,21.5282271 73.5342092,21.5282271 L73.5342092,23.2069562 C74.3395897,23.2069562 75.0699864,22.8831646 75.604394,22.3606646 C76.1963288,23.0395187 77.065981,23.4709771 78.0360082,23.4713729 L78.0360082,23.4713729 L96.6510082,23.4713729 L96.6510082,22.4010396 C96.6510082,22.0859562 96.3943179,21.8302479 96.0781168,21.8302479" id="Fill-15" fill="#3E3A39" mask="url(#mask-4)"></path>
                <path d="M42.7481652,21.2785354 C42.7481652,33.0304313 33.1994478,42.5573479 21.4206598,42.5573479 C9.641475,42.5573479 0.0927576087,33.0304313 0.0927576087,21.2785354 C0.0927576087,9.52624375 9.641475,0.00011875 21.4206598,0.00011875 C33.1994478,0.00011875 42.7481652,9.52624375 42.7481652,21.2785354" id="Fill-16" fill="#CA2B1D" mask="url(#mask-4)"></path>
                <path d="M52.4261799,27.0638771 L52.4261799,28.1437104 C52.0203158,27.9707312 51.6723755,27.8836479 51.3831527,27.8836479 C51.1673266,27.8836479 50.9876038,27.9267937 50.8455712,28.0138771 C50.7035386,28.1005646 50.6138755,28.2003146 50.5773755,28.3135229 C50.5400821,28.4263354 50.5218321,28.7271687 50.5218321,29.2156271 L50.5206418,30.3750229 L52.3154897,30.3750229 L52.3154897,31.3289812 L50.5202451,31.3289812 L50.5138973,38.9523354 L49.4077886,38.9523354 L49.4077886,31.3289812 L48.2774788,31.3289812 L48.2774788,30.3750229 L49.4077886,30.3750229 L49.4077886,29.0343354 C49.4077886,28.4196062 49.4641255,27.9810229 49.5775929,27.7181896 C49.6906636,27.4553562 49.8830821,27.2435854 50.1540549,27.0832729 C50.4254245,26.9233562 50.7535277,26.8430021 51.1379679,26.8430021 C51.4962234,26.8430021 51.9254951,26.9166271 52.4261799,27.0638771" id="Fill-17" fill="#CA2B1D" mask="url(#mask-4)"></path>
                <path d="M61.2050647,33.7968042 C61.0574777,33.2082 60.8424451,32.7371583 60.5603636,32.3848667 C60.2782821,32.0337625 59.9049505,31.7495542 59.4407658,31.5342208 C58.976581,31.3184917 58.4889886,31.2104292 57.9771951,31.2104292 C57.133331,31.2104292 56.4076951,31.4811792 55.8014777,32.0222833 C55.3587168,32.417325 55.023869,33.0079083 54.7965375,33.7968042 L61.2050647,33.7968042 Z M61.2050647,36.1068875 L62.1377984,36.5957417 C61.8315158,37.1950333 61.4788147,37.6783458 61.0781082,38.0456792 C60.6770049,38.4142 60.2263092,38.6940542 59.7252277,38.8860333 C59.2241462,39.0776167 58.6576027,39.1738042 58.0248038,39.1738042 C56.622331,39.1738042 55.525744,38.7150333 54.7350429,37.7978875 C53.9435484,36.8807417 53.5479995,35.8436583 53.5479995,34.6874292 C53.5479995,33.5992833 53.883244,32.6298875 54.5525429,31.7780542 C55.4015647,30.6958458 56.5378255,30.1547417 57.9613255,30.1547417 C59.4272766,30.1547417 60.5980538,30.7093042 61.4728636,31.8180333 C62.0953473,32.6013875 62.4115484,33.5783042 62.4222603,34.7499708 L54.686244,34.7499708 C54.7072712,35.747075 55.0266462,36.5636792 55.6431788,37.200575 C56.2601082,37.8378667 57.0226408,38.1569083 57.9299832,38.1569083 C58.3675864,38.1569083 58.7936842,38.0809083 59.2074832,37.9289083 C59.6216788,37.7769083 59.9735864,37.5746375 60.2639995,37.324075 C60.553619,37.072325 60.8678364,36.6669917 61.2050647,36.1068875 L61.2050647,36.1068875 Z" id="Fill-18" fill="#CA2B1D" mask="url(#mask-4)"></path>
                <path d="M64.4843913,30.3749042 L65.5905,30.3749042 L65.5905,31.911925 C66.0332609,31.3233208 66.5232337,30.8839458 67.0604185,30.591425 C67.5976033,30.3000917 68.1823967,30.154425 68.8147989,30.154425 C69.4571196,30.154425 70.0276304,30.3171125 70.525538,30.6424875 C71.0230489,30.96905 71.3904293,31.4080292 71.6280761,31.959425 C71.8649293,32.5112167 71.9835543,33.3705708 71.9835543,34.5374875 L71.9835543,38.9522167 L70.8770489,38.9522167 L70.8770489,34.8612792 C70.8770489,33.8728833 70.8361848,33.2126333 70.753663,32.8825083 C70.625913,32.3144875 70.3799348,31.8873833 70.0165217,31.6008 C69.652712,31.3150083 69.1790054,31.1713208 68.594212,31.1713208 C67.9245163,31.1713208 67.3250435,31.3918 66.7957935,31.8331542 C66.2665435,32.2749042 65.9170163,32.82155 65.7487989,33.4730917 C65.6428696,33.8994042 65.5905,34.6768208 65.5905,35.806925 L65.5905,38.9522167 L64.4843913,38.9522167 L64.4843913,30.3749042 Z" id="Fill-19" fill="#CA2B1D" mask="url(#mask-4)"></path>
                <path d="M78.5025734,31.2189396 C77.8753288,31.2189396 77.2933125,31.3701479 76.755731,31.6717729 C76.2185462,31.9737937 75.7968125,32.3913979 75.4917201,32.9253771 C75.186231,33.4585646 75.0334864,34.0360854 75.0334864,34.6559604 C75.0334864,35.5968562 75.3492908,36.3746687 75.9816929,36.9897937 C76.6140951,37.6041271 77.4329647,37.9116896 78.4390951,37.9116896 C79.4555408,37.9116896 80.2736168,37.6068979 80.8925299,36.9973146 C81.5114429,36.3877312 81.8212962,35.5865646 81.8212962,34.5926271 C81.8212962,33.9466271 81.6792636,33.3695021 81.3944049,32.8624396 C81.1099429,32.3553771 80.706856,31.9547937 80.1855408,31.6602937 C79.6638288,31.3661896 79.1028397,31.2189396 78.5025734,31.2189396 L78.5025734,31.2189396 Z M81.7657527,30.3750229 L82.8718614,30.3750229 L82.8718614,37.2098771 C82.8718614,38.4140021 82.7667255,39.2939396 82.5560571,39.8516687 C82.2664375,40.6393771 81.7633723,41.2473771 81.0468614,41.6725021 C80.3299538,42.0980229 79.4690299,42.3113771 78.4628995,42.3113771 C77.7249647,42.3113771 77.0628071,42.2072729 76.4756332,41.9990646 C75.8880625,41.7904604 75.4099918,41.5110021 75.0414212,41.1606896 C74.6724538,40.8095854 74.3328451,40.2977729 74.0218016,39.6224812 L75.2231277,39.6224812 C75.5500408,40.1905021 75.9721712,40.6112729 76.4887255,40.8843979 C77.0056766,41.1571271 77.6464103,41.2936896 78.4113234,41.2936896 C79.1655245,41.2936896 79.8022908,41.1543562 80.322019,40.8741062 C80.8417473,40.5930646 81.2119049,40.2407729 81.4336821,39.8172312 C81.6546658,39.3928979 81.7657527,38.7073146 81.7657527,37.7616687 L81.7657527,37.3203146 C81.3491766,37.8463771 80.8401603,38.2497312 80.2391005,38.5307729 C79.637644,38.8118146 78.9996875,38.9523354 78.325231,38.9523354 C77.5337364,38.9523354 76.790644,38.7567937 76.0943668,38.3657104 C75.3984864,37.9734396 74.8605082,37.4465854 74.4808288,36.7847521 C74.1011495,36.1221271 73.9115082,35.3945854 73.9115082,34.6009396 C73.9115082,33.8072937 74.1086875,33.0674812 74.5046332,32.3811062 C74.9001821,31.6955229 75.4472853,31.1524396 76.1459429,30.7538354 C76.8442038,30.3540437 77.5813451,30.1545437 78.3565734,30.1545437 C78.9996875,30.1545437 79.5999538,30.2867521 80.1561821,30.5523562 C80.7128071,30.8171687 81.2491984,31.2549604 81.7657527,31.8645437 L81.7657527,30.3750229 Z" id="Fill-20" fill="#CA2B1D" mask="url(#mask-4)"></path>
                <path d="M89.3792957,31.2189396 C88.7635565,31.2189396 88.1954261,31.3701479 87.6745076,31.6709812 C87.1531924,31.9730021 86.7389967,32.3973354 86.4311272,32.9431896 C86.1236543,33.4890437 85.9697196,34.0665646 85.9697196,34.6761479 C85.9697196,35.2797937 86.1248446,35.8569187 86.4354913,36.4079187 C86.7457413,36.9593146 87.1631109,37.3887937 87.6864098,37.6951687 C88.2097087,38.0027312 88.7714913,38.1567104 89.3717576,38.1567104 C89.976388,38.1567104 90.5500728,38.0039187 91.0924152,37.6999187 C91.6343609,37.3951271 92.050937,36.9830646 92.3433337,36.4629396 C92.6353337,35.9436062 92.7813337,35.3585646 92.7813337,34.7074187 C92.7813337,33.7150646 92.4536272,32.8853979 91.7982141,32.2188146 C91.1435946,31.5522312 90.3370239,31.2189396 89.3792957,31.2189396 L89.3792957,31.2189396 Z M93.8005565,30.3750229 L93.8005565,42.0905021 L92.7099207,42.0905021 L92.7099207,37.4778562 C92.2465293,38.0407312 91.7264043,38.4634812 91.1495457,38.7472937 C90.572687,39.0311062 89.9418717,39.1736062 89.2571,39.1736062 C88.0399043,39.1736062 87.0008446,38.7330437 86.1395239,37.8527104 C85.2782033,36.9727729 84.8477413,35.9016479 84.8477413,34.6397312 C84.8477413,33.4047312 85.2821707,32.3486479 86.1514261,31.4706896 C87.0206815,30.5931271 88.0664859,30.1545437 89.2884424,30.1545437 C89.994638,30.1545437 90.6329913,30.3037729 91.2050891,30.6038146 C91.7763935,30.9026687 92.2778717,31.3527312 92.7099207,31.9520229 L92.7099207,30.3750229 L93.8005565,30.3750229 Z" id="Fill-21" fill="#CA2B1D" mask="url(#mask-4)"></path>
                <path d="M96.1397701,30.3749042 L97.2458788,30.3749042 L97.2458788,34.37955 C97.2458788,35.3576542 97.2986451,36.0309667 97.403781,36.3983 C97.5624766,36.9243625 97.8643951,37.3391958 98.3103299,37.6439875 C98.7558679,37.9487792 99.2878951,38.1007792 99.9048245,38.1007792 C100.522151,38.1007792 101.045846,37.9527375 101.475515,37.6554667 C101.90558,37.3593833 102.202737,36.9686958 102.366194,36.4845917 C102.476884,36.1544667 102.532428,35.4526542 102.532428,34.37955 L102.532428,30.3749042 L103.662341,30.3749042 L103.662341,34.5845917 C103.662341,35.7677375 103.523879,36.6583625 103.247352,37.2576542 C102.970428,37.85655 102.554645,38.3256125 101.99921,38.6648417 C101.443379,39.003675 100.746705,39.1734875 99.9087918,39.1734875 C99.0712755,39.1734875 98.3718245,39.003675 97.8108353,38.6648417 C97.2498462,38.3256125 96.8308897,37.8529875 96.5547592,37.246175 C96.2778353,36.6385708 96.1397701,35.7249875 96.1397701,34.5058208 L96.1397701,30.3749042 Z" id="Fill-22" fill="#CA2B1D" mask="url(#mask-4)"></path>
                <path d="M107.33678,37.2177146 C107.605769,37.2177146 107.834291,37.3127146 108.024329,37.5015271 C108.21397,37.6915271 108.308791,37.9222979 108.308791,38.1958188 C108.308791,38.4634021 108.21397,38.6941729 108.024329,38.8857563 C107.834291,39.0777354 107.605769,39.1735271 107.33678,39.1735271 C107.068584,39.1735271 106.838872,39.0777354 106.649231,38.8857563 C106.459986,38.6941729 106.365166,38.4634021 106.365166,38.1958188 C106.365166,37.9222979 106.459986,37.6915271 106.649231,37.5015271 C106.838872,37.3127146 107.068584,37.2177146 107.33678,37.2177146" id="Fill-23" fill="#CA2B1D" mask="url(#mask-4)"></path>
                <path d="M118.944851,32.157025 L118.067264,32.7009 C117.309889,31.6966708 116.275987,31.19515 114.965558,31.19515 C113.91896,31.19515 113.048911,31.5312125 112.356998,32.2025458 C111.665085,32.8746708 111.319525,33.691275 111.319525,34.6523583 C111.319525,35.2769833 111.478221,35.8647958 111.796405,36.4161917 C112.114987,36.9671917 112.551797,37.3950875 113.106835,37.6998792 C113.66227,38.0038792 114.284357,38.1566708 114.973492,38.1566708 C116.236313,38.1566708 117.267438,37.6543583 118.067264,36.6509208 L118.944851,37.2260667 C118.533829,37.8435667 117.981568,38.3217333 117.288862,38.6629417 C116.596552,39.0025667 115.807835,39.1735667 114.92271,39.1735667 C113.563482,39.1735667 112.435949,38.7425042 111.540509,37.8803792 C110.645068,37.0182542 110.197547,35.9700875 110.197547,34.7346917 C110.197547,33.9042333 110.406628,33.13315 110.825585,32.4210458 C111.244145,31.7089417 111.819813,31.1524 112.552193,30.7537958 C113.284177,30.3540042 114.103443,30.1545042 115.009199,30.1545042 C115.57852,30.1545042 116.127607,30.2411917 116.657253,30.4145667 C117.186503,30.5875458 117.635215,30.8135667 118.004183,31.0926292 C118.372753,31.3709 118.686574,31.7259625 118.944851,32.157025" id="Fill-24" fill="#CA2B1D" mask="url(#mask-4)"></path>
                <path d="M125.135727,31.2341792 C124.216086,31.2341792 123.425782,31.5730125 122.764814,32.251075 C122.103847,32.9291375 121.773363,33.7493042 121.773363,34.7111792 C121.773363,35.3310542 121.923727,35.9093667 122.225646,36.4457208 C122.526771,36.9812833 122.933428,37.395325 123.446412,37.6878458 C123.959396,37.9791792 124.522368,38.12445 125.135727,38.12445 C125.749086,38.12445 126.312059,37.9791792 126.825042,37.6878458 C127.337233,37.395325 127.744684,36.9812833 128.045809,36.4457208 C128.346934,35.9093667 128.497695,35.3310542 128.497695,34.7111792 C128.497695,33.7493042 128.166417,32.9291375 127.50307,32.251075 C126.839325,31.5730125 126.050211,31.2341792 125.135727,31.2341792 M125.139695,30.1547417 C126.46401,30.1547417 127.561787,30.6321167 128.432629,31.5892417 C129.224521,32.4616583 129.619673,33.4947833 129.619673,34.6874292 C129.619673,35.8856167 129.20151,36.9329917 128.36558,37.8291583 C127.529254,38.725325 126.453695,39.1738042 125.139695,39.1738042 C123.82014,39.1738042 122.7422,38.725325 121.905874,37.8291583 C121.069151,36.9329917 120.651782,35.8856167 120.651782,34.6874292 C120.651782,33.4995333 121.046934,32.469575 121.838825,31.5967625 C122.709667,30.6348875 123.809825,30.1547417 125.139695,30.1547417" id="Fill-25" fill="#CA2B1D" mask="url(#mask-4)"></path>
                <path d="M131.658753,30.3749042 L132.764862,30.3749042 L132.764862,31.8569042 C133.150096,31.3102583 133.545248,30.9112583 133.951905,30.6587167 C134.510911,30.3226542 135.098878,30.154425 135.716204,30.154425 C136.132384,30.154425 136.527933,30.235175 136.902454,30.3986542 C137.276579,30.5617375 137.582862,30.7782583 137.820112,31.0490083 C138.057759,31.3197583 138.26327,31.7068833 138.437438,32.2119667 C138.805215,31.53905 139.264639,31.0280292 139.816503,30.6789042 C140.368764,30.3293833 140.962683,30.154425 141.598655,30.154425 C142.192574,30.154425 142.71627,30.3036542 143.171329,30.6036958 C143.625596,30.9029458 143.963221,31.32055 144.184204,31.8569042 C144.405188,32.3932583 144.515482,33.1975917 144.515482,34.2695083 L144.515482,38.9522167 L143.385172,38.9522167 L143.385172,34.2695083 C143.385172,33.3495917 143.31971,32.7182375 143.188389,32.3734667 C143.057068,32.0298833 142.832514,31.7516125 142.515123,31.5418208 C142.197335,31.3320292 141.818052,31.2263417 141.376878,31.2263417 C140.84128,31.2263417 140.352101,31.3842792 139.90815,31.6993625 C139.464199,32.0144458 139.140063,32.4352167 138.935346,32.9612792 C138.731025,33.4861542 138.627873,34.3645083 138.627873,35.5939667 L138.627873,38.9522167 L137.521764,38.9522167 L137.521764,34.5612375 C137.521764,33.5261333 137.457492,32.8227375 137.328552,32.4522375 C137.199215,32.0821333 136.974264,31.7848625 136.652905,31.5616125 C136.33115,31.3387583 135.949884,31.2263417 135.507123,31.2263417 C134.996123,31.2263417 134.518052,31.3803208 134.072911,31.6878833 C133.62777,31.9946542 133.298476,32.4086958 133.085427,32.9288208 C132.871585,33.4493417 132.764862,34.2457583 132.764862,35.317675 L132.764862,38.9522167 L131.658753,38.9522167 L131.658753,30.3749042 Z" id="Fill-26" fill="#CA2B1D" mask="url(#mask-4)"></path>
                <path d="M27.7950277,37.1341146 C26.6381364,37.1341146 25.6966745,36.1948021 25.6966745,35.0401562 L25.6966745,31.4645937 C25.6966745,31.1388229 25.9612995,30.8751979 26.287419,30.8751979 C26.6135386,30.8751979 26.8781636,31.1388229 26.8781636,31.4645937 L26.8781636,35.0401562 C26.8781636,35.5448437 27.2895821,35.9553229 27.7950277,35.9553229 C28.3008701,35.9553229 28.7126853,35.5448437 28.7126853,35.0401562 C28.7126853,34.7147812 28.9769136,34.4507604 29.3030332,34.4507604 C29.6295495,34.4507604 29.8937777,34.7147812 29.8937777,35.0401562 C29.8937777,36.1948021 28.9523158,37.1341146 27.7950277,37.1341146" id="Fill-27" fill="#FEFEFE" mask="url(#mask-4)"></path>
                <path d="M30.4598054,20.791225 C30.1336859,20.791225 29.8690609,20.5272042 29.8690609,20.2018292 C29.8690609,19.5914542 29.37155,19.0950792 28.760175,19.0950792 C28.1484033,19.0950792 27.6508924,19.5914542 27.6508924,20.2018292 C27.6508924,20.5272042 27.3862674,20.791225 27.0601478,20.791225 C26.7340283,20.791225 26.4694033,20.5272042 26.4694033,20.2018292 C26.4694033,18.9414958 27.4969576,17.9162875 28.760175,17.9162875 C30.0229957,17.9162875 31.05055,18.9414958 31.05055,20.2018292 C31.05055,20.5272042 30.785925,20.791225 30.4598054,20.791225" id="Fill-28" fill="#FEFEFE" mask="url(#mask-4)"></path>
                <path d="M15.8107288,20.791225 C15.4846092,20.791225 15.2199842,20.5272042 15.2199842,20.2018292 C15.2199842,19.5914542 14.7224734,19.0950792 14.1110984,19.0950792 C13.4993266,19.0950792 13.0018158,19.5914542 13.0018158,20.2018292 C13.0018158,20.5272042 12.7371908,20.791225 12.4110712,20.791225 C12.0849516,20.791225 11.8203266,20.5272042 11.8203266,20.2018292 C11.8203266,18.9414958 12.847881,17.9162875 14.1110984,17.9162875 C15.373919,17.9162875 16.4014734,18.9414958 16.4014734,20.2018292 C16.4014734,20.5272042 16.1368484,20.791225 15.8107288,20.791225" id="Fill-29" fill="#FEFEFE" mask="url(#mask-4)"></path>
                <path d="M19.797719,37.1404479 C19.4715995,37.1404479 19.2069745,36.8764271 19.2069745,36.5510521 L19.2069745,32.3389896 C19.2069745,32.0136146 19.4715995,31.7495937 19.797719,31.7495937 C20.1238386,31.7495937 20.3884636,32.0136146 20.3884636,32.3389896 L20.3884636,36.5510521 C20.3884636,36.8764271 20.1238386,37.1404479 19.797719,37.1404479" id="Fill-30" fill="#FEFEFE" mask="url(#mask-4)"></path>
                <path d="M23.0425293,37.1404479 C22.7164098,37.1404479 22.4517848,36.8764271 22.4517848,36.5510521 L22.4517848,32.3389896 C22.4517848,32.0136146 22.7164098,31.7495937 23.0425293,31.7495937 C23.3686489,31.7495937 23.6332739,32.0136146 23.6332739,32.3389896 L23.6332739,36.5510521 C23.6332739,36.8764271 23.3686489,37.1404479 23.0425293,37.1404479" id="Fill-31" fill="#FEFEFE" mask="url(#mask-4)"></path>
                <path d="M15.0968761,37.1341146 C13.96855,37.1341146 13.0500989,36.2181562 13.0500989,35.0920104 C13.0500989,34.7666354 13.3147239,34.5026146 13.6408435,34.5026146 C13.966963,34.5026146 14.231588,34.7666354 14.231588,35.0920104 C14.231588,35.5681979 14.6199957,35.9553229 15.0968761,35.9553229 C15.5741533,35.9553229 15.9625609,35.5681979 15.9625609,35.0920104 L15.9625609,31.4645937 C15.9625609,31.1392187 16.2267891,30.8751979 16.5533054,30.8751979 C16.879425,30.8751979 17.14405,31.1392187 17.14405,31.4645937 L17.14405,35.0920104 C17.14405,36.2181562 16.2255989,37.1341146 15.0968761,37.1341146" id="Fill-32" fill="#FEFEFE" mask="url(#mask-4)"></path>
                <path d="M21.4354185,22.377725 C20.3273261,22.377725 19.425538,23.2770583 19.425538,24.3826208 C19.425538,25.4881833 20.3273261,26.3879125 21.4354185,26.3879125 C22.5435109,26.3879125 23.4449022,25.4881833 23.4449022,24.3826208 C23.4449022,23.2770583 22.5435109,22.377725 21.4354185,22.377725 M21.4354185,27.5667042 C19.6758804,27.5667042 18.2440489,26.1381417 18.2440489,24.3826208 C18.2440489,22.6271 19.6758804,21.1989333 21.4354185,21.1989333 C23.1949565,21.1989333 24.6263913,22.6271 24.6263913,24.3826208 C24.6263913,26.1381417 23.1949565,27.5667042 21.4354185,27.5667042" id="Fill-33" fill="#FEFEFE" mask="url(#mask-4)"></path>
                <path d="M26.5049908,32.0129021 L26.0697679,30.9172354 C30.9179201,29.0010062 34.0505723,24.4002354 34.0505723,19.1970062 C34.0505723,12.2485479 28.3847408,6.59565208 21.4203821,6.59565208 C14.4560234,6.59565208 8.79019185,12.2485479 8.79019185,19.1970062 C8.79019185,24.4002354 11.922844,29.0006104 16.7705995,30.9168396 L16.3353766,32.0125062 C13.7906918,31.0066937 11.6189418,29.2836312 10.0553929,27.0297562 C8.45494728,24.7220479 7.60909946,22.0133604 7.60909946,19.1970062 C7.60909946,11.5985896 13.8045777,5.41686042 21.4203821,5.41686042 C29.0361864,5.41686042 35.2320614,11.5985896 35.2320614,19.1970062 C35.2320614,22.0137562 34.3858168,24.7220479 32.7849745,27.0297562 C31.2214255,29.2840271 29.0496755,31.0070896 26.5049908,32.0129021" id="Fill-34" fill="#FEFEFE" mask="url(#mask-4)"></path>
                <path d="M4.35936957,55.5520417 L6.69735326,55.5520417 L6.69735326,53.5526875 L4.35936957,53.5526875 L4.35936957,55.5520417 Z M6.89572283,51.3193958 C6.39940217,50.806 5.94791304,50.1849375 5.58688043,49.5183542 C5.27107609,50.1849375 4.85569022,50.7881875 4.35936957,51.3193958 L6.89572283,51.3193958 Z M3.70951087,52.9494375 L7.36506522,52.9494375 L7.36506522,56.6148542 L6.69735326,56.6148542 L6.69735326,56.1552917 L4.35936957,56.1552917 L4.35936957,56.6417708 L3.70951087,56.6417708 L3.70951087,52.9494375 Z M5.97528804,48.5727083 C5.94791304,48.6629583 5.91180978,48.7528125 5.87610326,48.8430625 C6.39940217,49.9145833 7.31983696,50.9861042 8.24979348,51.4995 C8.08752717,51.625375 7.87963587,51.8779167 7.76220109,52.0580208 C7.50035326,51.8779167 7.22977717,51.6522917 6.97705435,51.4005417 L6.97705435,51.93175 L4.14275,51.93175 L4.14275,51.5355208 C3.91700543,51.76075 3.65555435,51.976875 3.39370652,52.1569792 C3.29452174,52.0216042 3.05965217,51.7876667 2.91523913,51.6796042 C4.05269022,50.9053542 4.92829348,49.68025 5.33415761,48.4017083 L5.97528804,48.5727083 Z M0.0630815217,55.4166667 C0.830375,55.2729792 1.97655435,55.002625 3.10488043,54.7504792 L3.16796196,55.3359167 C2.12096739,55.5967708 1.01961957,55.867125 0.189244565,56.08325 L0.0630815217,55.4166667 Z M3.05052717,53.0483958 C3.04179891,53.2193958 3.04179891,53.4810417 3.05052717,53.615625 C0.785146739,54.0751875 0.469342391,54.1563333 0.288429348,54.264 C0.252722826,54.138125 0.144016304,53.8139375 0.0722065217,53.6429375 C0.261451087,53.6069167 0.469342391,53.3725833 0.749043478,53.0483958 C0.902184783,52.8682917 1.26321739,52.4182292 1.651625,51.8506042 C0.568527174,52.0037917 0.36063587,52.0580208 0.225347826,52.1209583 C0.189244565,51.976875 0.0809347826,51.634875 0,51.4634792 C0.162266304,51.41875 0.315804348,51.2113333 0.505048913,50.9053542 C0.703815217,50.6167917 1.33582065,49.4554167 1.68772826,48.3926042 L2.32846196,48.689875 C1.94957609,49.6260208 1.43500543,50.5989792 0.920434783,51.3554167 L2.04876087,51.2386458 C2.24752717,50.9140625 2.454625,50.5720625 2.61768478,50.2296667 L3.20406522,50.589875 C2.62641304,51.5715417 1.94957609,52.5619167 1.25448913,53.3725833 L3.05052717,53.0483958 Z" id="Fill-35" fill="#3E3A39" mask="url(#mask-4)"></path>
                <path d="M29.9774103,52.1480729 C30.491981,53.1024271 30.9521984,54.3362396 31.1057364,55.1560104 L30.4650027,55.3721354 C30.3201929,54.5523646 29.8691005,53.2916354 29.3906332,52.3459896 L29.9774103,52.1480729 Z M27.2696658,52.3459896 C26.9804429,53.5255729 26.5023723,54.6604271 25.9520951,55.4077604 C25.8251386,55.3000937 25.5367092,55.1286979 25.3740462,55.0388437 C25.9425734,54.3540521 26.3666875,53.2825312 26.6106821,52.2201146 L27.2696658,52.3459896 Z M28.7316495,50.7341563 L28.7316495,55.7952813 C28.7316495,56.1733021 28.6503179,56.3716146 28.4158451,56.4792813 C28.1722473,56.5964479 27.7929647,56.6146563 27.2244375,56.6146563 C27.1883342,56.4258438 27.0800245,56.1285729 26.9899647,55.9393646 C27.4140788,55.9571771 27.8020897,55.9480729 27.9195245,55.9480729 C28.0365625,55.9480729 28.0726658,55.9124479 28.0726658,55.7952813 L28.0726658,50.7341563 L26.7007418,50.7341563 C26.448019,51.3286979 26.1504647,51.8595104 25.8251386,52.2830521 C25.7172255,52.1840938 25.4375245,51.9584688 25.2927147,51.8595104 C25.9520951,51.0314271 26.475394,49.7433854 26.7733451,48.4284271 L27.4319321,48.5729063 C27.296644,49.0950104 27.1343777,49.6171146 26.9538614,50.1126979 L30.6094158,50.1126979 L30.7173288,50.0857813 L31.1779429,50.1934479 C31.0605082,50.8513229 30.8978451,51.6255729 30.7804103,52.1029479 L30.2210082,51.9948854 C30.2753614,51.6706979 30.3562962,51.1933229 30.4288995,50.7341563 L28.7316495,50.7341563 Z M25.5997908,48.6089271 C25.3379429,49.2751146 25.0221386,49.9234896 24.6698342,50.5358438 L24.6698342,56.5877396 L24.0291005,56.5877396 L24.0291005,51.5353229 C23.7402745,51.9497604 23.4240734,52.3190729 23.117394,52.6519688 C23.0451875,52.4900729 22.8646712,52.1480729 22.7385082,51.9948854 C23.6228397,51.1303854 24.4532147,49.7885104 24.9677853,48.4197188 L25.5997908,48.6089271 Z" id="Fill-36" fill="#3E3A39" mask="url(#mask-4)"></path>
                <path d="M52.0121033,53.0578958 L53.2487391,53.0578958 L53.2487391,50.9231667 L52.0121033,50.9231667 L52.0121033,53.0578958 Z M50.125212,53.0578958 L51.3531196,53.0578958 L51.3531196,50.9231667 L50.125212,50.9231667 L50.125212,53.0578958 Z M53.8894728,50.2747917 L53.8894728,54.2010625 L53.2487391,54.2010625 L53.2487391,53.6971667 L52.0121033,53.6971667 L52.0121033,56.6148542 L51.3531196,56.6148542 L51.3531196,53.6971667 L50.1256087,53.6971667 L50.1256087,54.2461875 L49.5118533,54.2461875 L49.5118533,50.2747917 L51.3531196,50.2747917 L51.3531196,48.4017083 L52.0121033,48.4017083 L52.0121033,50.2747917 L53.8894728,50.2747917 Z M49.2047772,54.7956042 C49.2230272,54.9757083 49.2769837,55.2278542 49.322212,55.3719375 C47.6253587,56.2633542 47.3635109,56.3987292 47.2194946,56.5519167 C47.1560163,56.3987292 46.984625,56.1731042 46.8671902,56.0472292 C47.0477065,55.9395625 47.3456576,55.6692083 47.3456576,55.2547708 L47.3456576,53.4355208 L46.0368152,53.4355208 L46.0368152,52.8235625 L47.3456576,52.8235625 L47.3456576,51.6075625 L46.5061576,51.6075625 L46.5061576,51.0043125 L49.0333859,51.0043125 L49.0333859,51.6075625 L47.9863913,51.6075625 L47.9863913,52.8235625 L49.2500054,52.8235625 L49.2500054,53.4355208 L47.9863913,53.4355208 L47.9863913,55.3988542 L49.2047772,54.7956042 Z M47.0564348,50.0404583 C46.7858587,50.4909167 46.4883043,50.8780417 46.1721033,51.2113333 C46.11775,51.0585417 45.9372337,50.72525 45.8201957,50.5720625 C46.3613478,50.0495625 46.840212,49.248 47.119913,48.4104167 L47.7158152,48.5905208 C47.6253587,48.8699792 47.5079239,49.1581458 47.3726359,49.4281042 L49.2230272,49.4281042 L49.2230272,50.0404583 L47.0564348,50.0404583 Z" id="Fill-37" fill="#3E3A39" mask="url(#mask-4)"></path>
                <path d="M72.0429859,54.0479937 C72.4309967,54.4355146 72.9277141,54.7684104 73.4958446,55.0474729 C73.992562,54.7684104 74.4166761,54.4442229 74.7416054,54.0479937 L72.0429859,54.0479937 Z M76.1405076,49.0498063 C74.4706326,49.3201604 71.7359098,49.4824521 69.5244859,49.5093688 C69.5066326,49.3470771 69.4431543,49.1222438 69.3891978,48.9777646 C71.6006217,48.9330354 74.3535946,48.7620354 75.923888,48.5098896 L76.1405076,49.0498063 Z M69.7228554,52.0850563 L69.154725,52.0850563 L69.154725,50.5808896 L70.7250185,50.5808896 C70.634562,50.3018271 70.5083989,49.9685354 70.3996924,49.6985771 L70.8964098,49.5093688 C71.0499478,49.8426604 71.2304641,50.2749104 71.3209207,50.5808896 L72.7559261,50.5808896 C72.6745946,50.2836188 72.5480348,49.9055979 72.44885,49.6174313 L72.9546924,49.4551396 C73.1082304,49.7975354 73.2704967,50.2658063 73.3605565,50.5808896 L74.2901163,50.5808896 C74.5432359,50.2119729 74.822937,49.6894729 74.9852033,49.3110563 L75.5811054,49.5093688 C75.3736109,49.8695771 75.120888,50.2567021 74.9042685,50.5808896 L76.6642033,50.5808896 L76.6642033,52.0850563 L76.0774261,52.0850563 L76.0774261,51.1572229 L69.7228554,51.1572229 L69.7228554,52.0850563 Z M75.662437,53.7059938 C75.3014043,54.3721813 74.7685837,54.8946813 74.1365783,55.3091187 C74.9129967,55.5968896 75.8064533,55.7952021 76.7364098,55.9032646 C76.6102467,56.0473479 76.4567087,56.3173063 76.3753772,56.4887021 C75.3283826,56.3446187 74.3444696,56.0742646 73.4871163,55.6780354 C72.7289478,56.0560562 71.8711978,56.3173063 70.9955946,56.4795979 C70.950763,56.3264104 70.797225,56.0473479 70.6889152,55.9301812 C71.4470837,55.8043062 72.1870022,55.6150979 72.8551109,55.3447437 C72.304437,55.0205562 71.8259696,54.6338271 71.4383554,54.1738688 C70.9237848,55.1737437 70.1925946,55.9570979 69.2082848,56.5247229 C69.136475,56.4075562 68.9198554,56.1284937 68.7936924,56.0113271 C70.0751598,55.3360354 70.8876815,54.2463063 71.3570239,52.7512438 L69.804187,52.7512438 L69.804187,52.1753063 L71.5192902,52.1753063 C71.5823717,51.9227646 71.636725,51.6619104 71.6819533,51.3915563 L72.322687,51.4723063 C72.2774587,51.7153479 72.2231054,51.9496813 72.1691489,52.1753063 L75.9964913,52.1753063 L75.9964913,52.7512438 L72.0064859,52.7512438 C71.9434043,53.0033896 71.8529478,53.2468271 71.762888,53.4716604 L75.1839696,53.4716604 L75.2918826,53.4447438 L75.662437,53.7059938 Z" id="Fill-38" fill="#3E3A39" mask="url(#mask-4)"></path>
                <path d="M97.642737,54.2010625 C97.3717641,53.66075 96.7671337,52.7693333 96.270813,52.1209583 L96.794112,51.8149792 C97.2999543,52.45425 97.922438,53.3183542 98.2116609,53.8499583 L97.642737,54.2010625 Z M99.6375413,50.1394167 C99.4931283,54.2461875 99.3756935,55.6331875 99.0146609,56.0741458 C98.8162913,56.3262917 98.6087967,56.4074375 98.3017207,56.43475 C97.9855196,56.470375 97.4709489,56.4529583 96.9659,56.4256458 C96.94765,56.2273333 96.8663185,55.9569792 96.7401554,55.7681667 C97.3269326,55.8223958 97.8680848,55.8223958 98.0759761,55.8223958 C98.2564924,55.8223958 98.3556772,55.8041875 98.445737,55.6870208 C98.743688,55.3719375 98.8793728,54.0031458 98.9968076,50.418875 L96.7040522,50.418875 C96.4513293,51.0225208 96.1716283,51.5715417 95.8554272,51.9950833 C95.7379924,51.886625 95.449563,51.7065208 95.3047533,51.6166667 C95.9097804,50.8242083 96.3969761,49.5812917 96.6861989,48.3474792 L97.3269326,48.5006667 C97.2186228,48.9420208 97.092063,49.3742708 96.9389217,49.7974167 L99.6375413,49.7974167 L99.6375413,50.1394167 Z M92.7144435,55.0659583 L94.6096663,55.0659583 L94.6096663,52.9047083 L92.7144435,52.9047083 L92.7144435,55.0659583 Z M92.7144435,52.3101667 L94.6096663,52.3101667 L94.6096663,50.4279792 L92.7144435,50.4279792 L92.7144435,52.3101667 Z M94.1950739,48.5006667 C94.0415359,48.9420208 93.8788728,49.4372083 93.7253348,49.8243333 L95.2234217,49.8243333 L95.2234217,55.6692083 L92.7144435,55.6692083 L92.7144435,56.3805208 L92.100688,56.3805208 L92.100688,49.8243333 L93.1115793,49.8243333 C93.2468674,49.3924792 93.4095304,48.7888333 93.472612,48.3656875 L94.1950739,48.5006667 Z" id="Fill-39" fill="#3E3A39" mask="url(#mask-4)"></path>
                <path d="M122.728354,55.678075 L122.728354,56.32645 L114.731283,56.32645 L114.731283,55.678075 L118.386838,55.678075 L118.386838,53.39095 L115.706071,53.39095 L115.706071,52.7421792 L118.386838,52.7421792 L118.386838,50.7788458 L116.265473,50.7788458 C115.976251,51.3464708 115.660843,51.8420542 115.317664,52.2469917 C115.191501,52.1389292 114.893549,51.9410125 114.713033,51.8507625 C115.452952,51.0583042 116.030604,49.8153875 116.382908,48.5368458 L117.059745,48.6805333 C116.915332,49.1761167 116.752669,49.6625958 116.553903,50.1217625 L118.386838,50.1217625 L118.386838,48.3927625 L119.072403,48.3927625 L119.072403,50.1217625 L122.30424,50.1217625 L122.30424,50.7788458 L119.072403,50.7788458 L119.072403,52.7421792 L121.970185,52.7421792 L121.970185,53.39095 L119.072403,53.39095 L119.072403,55.678075 L122.728354,55.678075 Z" id="Fill-40" fill="#3E3A39" mask="url(#mask-4)"></path>
                <path d="M141.269679,55.605875 L144.483266,55.605875 L144.483266,53.7506042 L141.269679,53.7506042 L141.269679,55.605875 Z M143.237505,51.6522917 L143.237505,53.1295417 L145.124,53.1295417 L145.124,56.560625 L144.483266,56.560625 L144.483266,56.2273333 L141.269679,56.2273333 L141.269679,56.60575 L140.655924,56.60575 L140.655924,53.1295417 L142.596375,53.1295417 L142.596375,51.6522917 L139.99694,51.6522917 L139.99694,51.0043125 L142.596375,51.0043125 L142.596375,49.5452708 C141.937788,49.6442292 141.251429,49.725375 140.610696,49.7883125 C140.583717,49.6260208 140.493261,49.3742708 140.430179,49.2210833 C141.98262,49.0591875 143.796908,48.780125 144.799071,48.4199167 L145.331098,48.9420208 C144.744717,49.1399375 144.013527,49.3109375 143.237505,49.4463125 L143.237505,51.0043125 L145.710777,51.0043125 L145.710777,51.6522917 L143.237505,51.6522917 Z M139.626783,49.9688125 C139.257022,49.7071667 138.507582,49.2753125 137.957304,48.9780417 L138.327065,48.5006667 C138.877739,48.7619167 139.635908,49.1763542 140.01519,49.4281042 L139.626783,49.9688125 Z M137.731163,56.0385208 C138.219152,55.3632292 138.913842,54.1741458 139.437538,53.1564583 L139.924734,53.5978125 C139.455391,54.5434583 138.823386,55.6601042 138.290962,56.4885833 L137.731163,56.0385208 Z M139.17569,52.409125 C138.805533,52.1569792 138.065217,51.7247292 137.514543,51.4365625 L137.885098,50.9500833 C138.408397,51.2113333 139.15744,51.6075625 139.554576,51.8597083 L139.17569,52.409125 Z" id="Fill-41" fill="#3E3A39" mask="url(#mask-4)"></path>
            </g>
            <g id="package" transform="translate(1.000000, 358.000000)" fill="#FFFFFF">
                <path d="M35.397,4.874 C35.335,4.677 35.189,4.516 34.997,4.434 L24.82,0.06 C24.493,-0.084 24.11,0.038 23.923,0.338 L20.4,5.974 L10.644,7.09 L10.084,5.794 C10.016,5.634 9.891,5.504 9.734,5.43 L1.03,1.308 C0.76,1.18 0.438,1.23 0.222,1.438 C0.006,1.643 -0.06,1.958 0.058,2.232 L2.884,8.784 L2.884,25.484 C2.884,25.727 3.007,25.952 3.212,26.084 L12.437,32.004 C12.465,32.022 12.497,32.031 12.527,32.044 C12.551,32.056 12.573,32.068 12.597,32.077 C12.673,32.102 12.75,32.119 12.829,32.119 C12.855,32.119 12.883,32.116 12.909,32.113 L30.135,30.139 C30.498,30.099 30.773,29.793 30.773,29.431 L30.773,12.765 L35.323,5.462 C35.433,5.286 35.459,5.072 35.396,4.874 L35.397,4.874 Z M20.107,7.442 L20.107,13.008 L13.52,13.762 L11.233,8.459 L20.108,7.441 L20.107,7.442 Z M21.547,7.952 L28.013,12.102 L21.548,12.842 L21.548,7.952 L21.547,7.952 Z M8.867,6.602 L11.589,12.914 L4.18,8.16 L2.132,3.41 L8.867,6.6 L8.867,6.602 Z M4.324,9.95 L12.109,14.947 L12.109,30.094 L4.323,25.097 L4.323,9.95 L4.324,9.95 Z M13.549,30.606 L13.549,15.194 L29.333,13.386 L29.333,28.796 L13.548,30.606 L13.549,30.606 Z M29.826,11.566 L21.811,6.424 L24.818,1.614 L33.658,5.414 L29.825,11.567 L29.826,11.566 Z" id="Shape"></path>
            </g>
            <g id="webchat" transform="translate(1.000000, 411.000000)">
                <g id="Group">
                    <circle id="Oval" fill="#28B836" cx="16" cy="16" r="16"></circle>
                    <g transform="translate(5.053000, 6.737000)" id="Shape" fill="#FFFFFF">
                        <path d="M5.645,5.846 C5.105,5.846 4.561,5.47 4.561,4.908 C4.561,4.344 5.106,3.972 5.646,3.972 C6.186,3.972 6.544,4.344 6.544,4.908 C6.544,5.47 6.184,5.846 5.646,5.846 M10.684,3.972 C11.226,3.972 11.584,4.344 11.584,4.908 C11.584,5.47 11.226,5.846 10.684,5.846 C10.144,5.846 9.604,5.47 9.604,4.908 C9.604,4.344 10.144,3.972 10.684,3.972 M14.554,6.005 C14.788,6.005 15.019,6.023 15.248,6.049 C14.624,3.027 11.523,0.784 7.983,0.784 C4.026,0.784 0.783,3.592 0.783,7.159 C0.783,9.219 1.863,10.909 3.665,12.221 L2.945,14.476 L5.462,13.162 C6.362,13.348 7.085,13.538 7.982,13.538 C8.209,13.538 8.432,13.526 8.656,13.508 C8.516,13.006 8.433,12.481 8.433,11.938 C8.433,8.661 11.133,6.003 14.553,6.003"></path>
                        <path d="M16.984,10.91 C16.628,10.91 16.269,10.54 16.269,10.16 C16.269,9.787 16.627,9.41 16.983,9.41 C17.523,9.41 17.883,9.787 17.883,10.16 C17.883,10.54 17.523,10.91 16.983,10.91 M13.023,10.91 C12.665,10.91 12.303,10.54 12.303,10.16 C12.303,9.787 12.665,9.41 13.023,9.41 C13.568,9.41 13.923,9.787 13.923,10.16 C13.923,10.54 13.568,10.91 13.023,10.91 M21.123,11.85 C21.123,8.85 18.243,6.408 15.008,6.408 C11.582,6.408 8.884,8.851 8.884,11.848 C8.884,14.851 11.582,17.288 15.007,17.288 C15.723,17.288 16.447,17.101 17.167,16.913 L19.141,18.039 L18.601,16.165 C20.045,15.035 21.121,13.538 21.121,11.848"></path>
                    </g>
                </g>
            </g>
            <g id="weibo" transform="translate(1.000000, 463.000000)">
                <g id="Group">
                    <circle id="Oval" fill="#E73736" cx="16" cy="16" r="16"></circle>
                    <path d="M13.424,16.464 C12.184,16.714 11.346,17.764 11.554,18.807 C11.761,19.85 12.936,20.492 14.177,20.24 C15.417,19.988 16.255,18.938 16.047,17.896 C15.839,16.854 14.665,16.213 13.424,16.464 Z M23.534,12.412 C23.228,10.909 22.051,9.722 20.561,9.415 C20.201,9.342 19.847,9.575 19.773,9.94 C19.699,10.304 19.933,10.66 20.293,10.736 C21.263,10.936 22.026,11.706 22.223,12.683 C22.298,13.048 22.653,13.283 23.013,13.208 C23.375,13.133 23.608,12.776 23.533,12.412 L23.534,12.412 Z M26.19,12.51 C26.187,9.322 23.623,6.737 20.46,6.737 C20.09,6.737 19.793,7.037 19.793,7.411 C19.793,7.784 20.091,8.085 20.461,8.085 C22.886,8.085 24.854,10.068 24.854,12.515 C24.854,12.887 25.154,13.189 25.522,13.189 C25.892,13.189 26.192,12.887 26.192,12.514 L26.192,12.511 L26.19,12.51 Z M15.004,21.882 C11.924,22.189 9.264,20.778 9.064,18.728 C8.864,16.678 11.2,14.765 14.28,14.456 C17.362,14.146 20.02,15.559 20.22,17.608 C20.42,19.658 18.084,21.572 15.004,21.882 Z M21.164,15.082 C20.904,15.002 20.722,14.947 20.86,14.594 C21.157,13.826 21.188,13.164 20.866,12.692 C20.262,11.806 18.61,11.852 16.716,12.668 C16.716,12.668 16.121,12.935 16.273,12.45 C16.563,11.49 16.52,10.684 16.067,10.22 C15.039,9.164 12.307,10.26 9.962,12.665 C8.207,14.465 7.188,16.375 7.188,18.025 C7.188,21.185 11.133,23.297 14.993,23.297 C20.053,23.297 23.42,20.087 23.42,17.692 C23.42,16.244 22.232,15.422 21.164,15.082 Z" id="Shape" fill="#FFFFFF"></path>
                </g>
            </g>
        </g>
    </g>
</svg>