<?xml version="1.0" encoding="utf-8"?>
<!-- Generator: Adobe Illustrator 17.0.0, SVG Export Plug-In . SVG Version: 6.00 Build 0)  -->
<!DOCTYPE svg PUBLIC "-//W3C//DTD SVG 1.1//EN" "http://www.w3.org/Graphics/SVG/1.1/DTD/svg11.dtd">
<svg version="1.1" id="图层_1" xmlns="http://www.w3.org/2000/svg" xmlns:xlink="http://www.w3.org/1999/xlink" x="0px" y="0px"
	 width="467.72px" height="289.13px" viewBox="0 0 467.72 289.13" enable-background="new 0 0 467.72 289.13" xml:space="preserve">
<g>
	<g>
		<path fill="#3E3A39" d="M418.137,91.755c-0.507-4.056-3.972-7.116-8.061-7.116h-23.849c0.313-1.139,0.489-2.335,0.489-3.573h-4.24
			c0,3.208-1.639,6.039-4.124,7.703v4.784c2.367-0.979,4.391-2.614,5.858-4.673h25.865c1.916,0,3.543,1.403,3.838,3.283v32.817
			h-0.004c0,2.146-1.746,3.946-3.89,3.946v4.241c4.482,0,8.13-3.703,8.13-8.187h0.004V92.018L418.137,91.755z"/>
		<path fill="#3E3A39" d="M289.084,112.685c5.062-9.472,4.998-19.068,4.998-23.201c0-5.345-3.903-7.208-5.966-7.447l-9.674-0.013
			v4.242h9.28c0.452,0.081,2.119,0.566,2.119,3.219c0,3.54-0.005,10.797-3.101,18.31c-3.357-8.7-2.807-17.093-2.798-17.228
			l-4.232-0.279c-0.014,0.228-0.356,5.67,1.081,12.484c0.752,3.564,1.855,6.941,3.396,10.024c-1.642,2.648-3.757,5.232-6.492,7.596
			v-2.056c0-0.798-0.647-1.444-1.443-1.444h-0.395V86.266h1.838v-2.797v-0.002c0-0.796-0.647-1.443-1.443-1.443h-17.845v4.242h1.901
			v30.626h-1.901v4.242h13.21v4.477h2.797c0.797,0,1.443-0.647,1.443-1.444v-3.033h1.838v4.477c3.742-2.7,6.622-5.715,8.85-8.834
			c2.193,3.121,4.997,5.805,8.552,7.89v-4.725C292.564,117.785,290.606,115.29,289.084,112.685z M264.55,96.946h7.068v7.68h-7.068
			V96.946z M271.617,86.266v6.439h-7.068v-6.439H271.617z M264.55,116.891v-8.025h7.068v8.025H264.55z"/>
		<path fill="#3E3A39" d="M230.045,85.008h-24.707v-3.942h-4.241v3.942h-26.15v4.241h26.15v13.193h-26.15v4.241h26.15v13.193h-26.15
			v4.241h26.15v8.558h2.798c0.796,0,1.443-0.645,1.443-1.442v-7.117h26.151v-2.816c0-0.736-0.553-1.336-1.265-1.425h-24.886v-13.193
			h26.151v-2.801v-0.002c0-0.781-0.622-1.412-1.397-1.438h-24.753V89.249h26.151v-2.797v-0.001
			C231.489,85.655,230.843,85.008,230.045,85.008z"/>
		<path fill="#3E3A39" d="M355.229,85.118c-0.03,0-0.051-0.004-0.068-0.012l-30.538-0.09c0.383-1.25,0.593-2.576,0.593-3.95h-4.241
			c0,3.208-1.64,6.039-4.124,7.703v4.784c2.222-0.919,4.143-2.418,5.585-4.302l34.223,0.1l0.008-2.828
			C356.645,85.745,356.011,85.118,355.229,85.118z"/>
		<path fill="#3E3A39" d="M355.188,110.453h-0.8v-8.087c0-4.115-3.348-7.462-7.462-7.462h-22.612c-4.114,0-7.461,3.347-7.463,7.461
			v8.088h-2.243v4.24h2.243v10.289c0.002,4.076,3.318,7.421,7.414,7.459h22.718h0.01c4.076-0.037,7.394-3.384,7.394-7.46v-10.288
			h2.242v-2.798C356.63,111.098,355.985,110.453,355.188,110.453z M321.091,102.365c0-1.775,1.445-3.221,3.222-3.221h22.612
			c1.777,0,3.222,1.445,3.222,3.221v8.087h-12.408v-7.383h-4.24v7.383h-12.408V102.365z M350.147,124.981
			c0,1.757-1.428,3.199-3.184,3.219h-22.679c-1.76-0.015-3.193-1.46-3.193-3.218v-10.289h12.408v7.382h2.797
			c0.797,0,1.444-0.645,1.444-1.442v-5.94h12.408V124.981z"/>
		<path fill="#3E3A39" d="M310.695,82.701c-0.056,0-0.083-0.018-0.086-0.048h-10.328v4.24h11.857v-2.747v-0.001
			C312.138,83.348,311.492,82.701,310.695,82.701z"/>
		<path fill="#3E3A39" d="M310.695,103.749h-10.414v4.241h11.857v-2.797C312.138,104.397,311.492,103.749,310.695,103.749z"/>
		<path fill="#3E3A39" d="M311.081,127.14h-10.8v4.241h11.857v-2.856C312.138,127.862,311.69,127.31,311.081,127.14z"/>
		<path fill="#3E3A39" d="M373.677,82.701c-0.052,0-0.081-0.018-0.091-0.048h-10.325v4.24h11.859v-2.747v-0.001
			C375.12,83.348,374.474,82.701,373.677,82.701z"/>
		<path fill="#3E3A39" d="M408.313,95.767h-21.187c0.156-0.732,0.247-1.487,0.247-2.265h-4.241c0,2.728-1.653,5.075-4.008,6.1v4.465
			c2.466-0.617,4.595-2.082,6.075-4.059h7.108l-0.038,8.716h-12.675v4.241h12.657l-0.055,12.722h-6.434
			c-0.673,0-1.218-0.546-1.218-1.219v-7.812h-4.24v7.812c0,3.01,2.449,5.46,5.459,5.46h16.094c3.01,0,5.46-2.45,5.46-5.461v-7.811
			h-4.241v7.812c0,0.673-0.547,1.219-1.219,1.219h-5.42l0.056-12.722h12.787v-2.796c0-0.798-0.647-1.444-1.443-1.444h-11.326
			l0.038-8.716h12.731v-2.884v-0.001C409.281,96.495,408.876,95.965,408.313,95.767z"/>
		<path fill="#3E3A39" d="M373.677,103.749h-10.416v4.241h11.859v-2.797C375.12,104.397,374.474,103.749,373.677,103.749z"/>
		<path fill="#3E3A39" d="M374.062,127.14h-10.801v4.241h11.859v-2.856C375.12,127.862,374.67,127.31,374.062,127.14z"/>
		<path fill="#3E3A39" d="M293.654,128.494c-0.074,0-0.108-0.039-0.125-0.095h-42.487v-12.763h6.361v-2.799
			c0-0.796-0.646-1.443-1.443-1.443h-4.917v-9.266h6.361v-2.785c0,0,0,0,0-0.002c0-0.797-0.646-1.442-1.443-1.442
			c-0.026,0-0.048-0.005-0.067-0.012h-4.85v-8.639h6.361v-2.762c-0.002-0.011-0.005-0.022-0.005-0.036
			c0-0.797-0.646-1.443-1.443-1.443h-4.913v-3.942h-4.241v3.942h-8.687v4.241h8.687v8.639h-8.687v4.24h8.687v26.007
			c-1.455-0.554-2.495-1.949-2.51-3.593c0-0.011,0.002-0.022,0.002-0.034h-0.005v-16.508h-4.241v16.508
			c0,0.012,0.002,0.023,0.002,0.035c-0.02,1.76-1.455,3.187-3.219,3.187v4.241c2.03,0,3.872-0.817,5.219-2.137
			c1.492,1.715,3.683,2.805,6.129,2.806v0h46.92v-2.703C295.098,129.14,294.451,128.494,293.654,128.494z"/>
	</g>
	<path fill="#CB2B1C" d="M159.234,127.101c0,29.689-24.068,53.757-53.757,53.757c-29.69,0-53.758-24.068-53.758-53.757
		c0-29.69,24.069-53.756,53.758-53.756C135.165,73.344,159.234,97.41,159.234,127.101"/>
	<g>
		<path fill="#CB2B1C" d="M183.627,141.716v2.728c-1.023-0.438-1.9-0.657-2.629-0.657c-0.545,0-0.997,0.109-1.355,0.329
			c-0.357,0.219-0.584,0.471-0.676,0.757c-0.094,0.285-0.139,1.046-0.139,2.28l-0.003,2.928h4.524v2.411h-4.525l-0.016,19.259
			h-2.788v-19.259h-2.849v-2.411h2.849v-3.386c0-1.553,0.143-2.661,0.428-3.326c0.285-0.663,0.77-1.198,1.454-1.604
			c0.684-0.404,1.511-0.607,2.48-0.607C181.284,141.158,182.366,141.344,183.627,141.716z"/>
		<path fill="#CB2B1C" d="M205.755,164.561l2.351,1.235c-0.771,1.514-1.661,2.734-2.671,3.663c-1.011,0.931-2.147,1.638-3.41,2.123
			c-1.263,0.484-2.691,0.727-4.286,0.727c-3.534,0-6.299-1.159-8.292-3.476c-1.994-2.317-2.991-4.936-2.991-7.858
			c0-2.749,0.844-5.198,2.532-7.35c2.139-2.734,5.003-4.102,8.592-4.102c3.695,0,6.646,1.401,8.851,4.202
			c1.569,1.979,2.366,4.447,2.393,7.407h-19.499c0.053,2.519,0.857,4.581,2.412,6.191c1.556,1.609,3.477,2.415,5.764,2.415
			c1.103,0,2.177-0.192,3.22-0.576c1.043-0.384,1.931-0.895,2.662-1.528C204.113,167.001,204.905,165.977,205.755,164.561z
			 M205.755,158.726c-0.372-1.487-0.914-2.677-1.625-3.567c-0.711-0.888-1.652-1.605-2.822-2.149
			c-1.169-0.545-2.399-0.818-3.689-0.818c-2.127,0-3.955,0.684-5.483,2.051c-1.116,0.998-1.961,2.49-2.533,4.483H205.755z"/>
		<path fill="#CB2B1C" d="M214.021,150.081h2.789v3.883c1.115-1.487,2.351-2.598,3.705-3.337c1.354-0.736,2.828-1.103,4.422-1.103
			c1.619,0,3.057,0.41,4.312,1.233c1.255,0.825,2.18,1.933,2.779,3.327c0.597,1.394,0.896,3.564,0.896,6.512v11.154h-2.788v-10.336
			c0-2.497-0.103-4.164-0.311-4.999c-0.323-1.434-0.943-2.514-1.859-3.238c-0.916-0.722-2.111-1.084-3.585-1.084
			c-1.687,0-3.199,0.556-4.532,1.672c-1.335,1.115-2.215,2.497-2.64,4.142c-0.266,1.077-0.398,3.042-0.398,5.896v7.947h-2.789
			V150.081z"/>
		<path fill="#CB2B1C" d="M257.579,150.081h2.788v17.268c0,3.042-0.265,5.265-0.796,6.673c-0.73,1.991-1.998,3.526-3.804,4.601
			s-3.977,1.614-6.512,1.614c-1.86,0-3.53-0.264-5.01-0.789c-1.481-0.528-2.685-1.233-3.615-2.118
			c-0.93-0.888-1.786-2.18-2.57-3.886h3.028c0.824,1.434,1.888,2.497,3.19,3.188c1.302,0.689,2.918,1.034,4.845,1.034
			c1.901,0,3.507-0.353,4.816-1.06c1.31-0.71,2.243-1.6,2.802-2.67c0.558-1.072,0.837-2.804,0.837-5.193v-1.115
			c-1.049,1.329-2.333,2.348-3.847,3.058c-1.516,0.71-3.124,1.065-4.825,1.065c-1.995,0-3.868-0.494-5.622-1.482
			c-1.755-0.991-3.11-2.322-4.067-3.994c-0.957-1.674-1.436-3.512-1.436-5.517c0-2.005,0.498-3.874,1.496-5.608
			c0.997-1.732,2.376-3.104,4.136-4.111c1.761-1.01,3.618-1.513,5.572-1.513c1.622,0,3.134,0.333,4.536,1.005
			c1.403,0.669,2.755,1.775,4.057,3.315V150.081z M249.354,152.213c-1.581,0-3.048,0.382-4.403,1.144
			c-1.354,0.763-2.417,1.818-3.187,3.166c-0.77,1.348-1.155,2.806-1.155,4.373c0,2.377,0.796,4.342,2.39,5.896
			c1.594,1.552,3.658,2.329,6.195,2.329c2.562,0,4.623-0.77,6.184-2.31s2.341-3.564,2.341-6.076c0-1.631-0.359-3.09-1.076-4.37
			c-0.717-1.281-1.733-2.293-3.047-3.037C252.282,152.585,250.868,152.213,249.354,152.213z"/>
		<path fill="#CB2B1C" d="M287.914,150.081v29.597h-2.749v-11.653c-1.168,1.422-2.479,2.49-3.934,3.207
			c-1.454,0.717-3.044,1.077-4.77,1.077c-3.068,0-5.687-1.113-7.858-3.337c-2.171-2.224-3.256-4.929-3.256-8.117
			c0-3.121,1.095-5.788,3.286-8.007c2.191-2.216,4.827-3.324,7.907-3.324c1.78,0,3.389,0.376,4.831,1.134
			c1.44,0.756,2.704,1.893,3.793,3.406v-3.984H287.914z M276.77,152.213c-1.552,0-2.984,0.382-4.297,1.142
			c-1.313,0.763-2.358,1.835-3.134,3.214c-0.775,1.379-1.163,2.838-1.163,4.377c0,1.526,0.391,2.984,1.174,4.375
			c0.782,1.394,1.834,2.478,3.153,3.253c1.319,0.777,2.736,1.166,4.248,1.166c1.524,0,2.971-0.386,4.337-1.154
			c1.366-0.77,2.417-1.811,3.153-3.125c0.736-1.312,1.105-2.79,1.105-4.435c0-2.507-0.826-4.603-2.478-6.287
			C281.217,153.055,279.184,152.213,276.77,152.213z"/>
		<path fill="#CB2B1C" d="M293.81,150.081h2.788v10.118c0,2.471,0.133,4.171,0.398,5.1c0.399,1.329,1.161,2.377,2.285,3.147
			c1.123,0.77,2.463,1.154,4.019,1.154c1.555,0,2.876-0.374,3.959-1.125c1.084-0.748,1.833-1.734,2.245-2.958
			c0.278-0.835,0.418-2.607,0.418-5.318v-10.118h2.848v10.635c0,2.989-0.349,5.239-1.046,6.752
			c-0.698,1.514-1.746,2.699-3.147,3.555c-1.401,0.856-3.157,1.286-5.269,1.286c-2.111,0-3.874-0.429-5.288-1.286
			c-1.414-0.856-2.47-2.051-3.166-3.584c-0.698-1.535-1.046-3.843-1.046-6.923V150.081z"/>
		<path fill="#CB2B1C" d="M322.032,167.368c0.677,0,1.254,0.24,1.733,0.717c0.478,0.48,0.717,1.063,0.717,1.753
			c0,0.676-0.239,1.259-0.717,1.744c-0.479,0.484-1.055,0.727-1.733,0.727c-0.676,0-1.255-0.242-1.733-0.727
			c-0.477-0.485-0.716-1.067-0.716-1.744c0-0.691,0.239-1.274,0.716-1.753C320.778,167.608,321.356,167.368,322.032,167.368z"/>
		<path fill="#CB2B1C" d="M351.291,154.583l-2.212,1.374c-1.909-2.538-4.515-3.804-7.818-3.804c-2.638,0-4.831,0.849-6.575,2.545
			c-1.744,1.698-2.616,3.761-2.616,6.189c0,1.578,0.401,3.063,1.203,4.457c0.802,1.391,1.903,2.473,3.303,3.243
			c1.4,0.768,2.967,1.154,4.705,1.154c3.183,0,5.782-1.269,7.798-3.804l2.212,1.454c-1.036,1.559-2.427,2.768-4.174,3.629
			c-1.745,0.859-3.733,1.29-5.964,1.29c-3.426,0-6.268-1.089-8.525-3.267c-2.257-2.178-3.386-4.826-3.386-7.947
			c0-2.099,0.528-4.047,1.583-5.845c1.056-1.799,2.507-3.205,4.353-4.212c1.844-1.01,3.91-1.513,6.193-1.513
			c1.434,0,2.819,0.218,4.153,0.657c1.335,0.437,2.466,1.007,3.395,1.713C349.849,152.597,350.64,153.494,351.291,154.583z"/>
		<path fill="#CB2B1C" d="M366.905,149.524c3.339,0,6.106,1.206,8.3,3.624c1.996,2.204,2.992,4.814,2.992,7.827
			c0,3.027-1.054,5.673-3.161,7.937c-2.108,2.264-4.819,3.396-8.131,3.396c-3.326,0-6.042-1.132-8.151-3.396
			c-2.108-2.264-3.161-4.91-3.161-7.937c0-3.001,0.997-5.603,2.992-7.808C360.78,150.738,363.553,149.524,366.905,149.524z
			 M366.895,152.252c-2.318,0-4.31,0.856-5.976,2.569c-1.666,1.713-2.498,3.785-2.498,6.215c0,1.566,0.379,3.027,1.139,4.382
			c0.759,1.353,1.784,2.399,3.077,3.137c1.293,0.736,2.712,1.103,4.258,1.103c1.546,0,2.965-0.367,4.258-1.103
			c1.292-0.739,2.318-1.785,3.078-3.137c0.759-1.355,1.139-2.816,1.139-4.382c0-2.43-0.836-4.502-2.508-6.215
			C371.189,153.108,369.2,152.252,366.895,152.252z"/>
		<path fill="#CB2B1C" d="M383.337,150.081h2.788v3.744c0.97-1.382,1.967-2.389,2.991-3.027c1.409-0.849,2.892-1.274,4.447-1.274
			c1.049,0,2.046,0.204,2.99,0.616c0.944,0.413,1.715,0.96,2.313,1.643c0.598,0.684,1.117,1.662,1.555,2.938
			c0.927-1.701,2.086-2.991,3.477-3.874c1.391-0.883,2.888-1.324,4.492-1.324c1.497,0,2.817,0.376,3.964,1.134
			c1.145,0.756,1.997,1.811,2.553,3.166c0.557,1.355,0.835,3.387,0.835,6.095v11.83h-2.849v-11.83c0-2.324-0.166-3.919-0.496-4.79
			c-0.331-0.868-0.897-1.571-1.697-2.101c-0.801-0.53-1.757-0.796-2.869-0.796c-1.35,0-2.583,0.398-3.702,1.195
			c-1.119,0.796-1.936,1.859-2.451,3.188c-0.516,1.326-0.775,3.545-0.775,6.651v8.484h-2.789v-11.094
			c0-2.615-0.162-4.392-0.487-5.327c-0.326-0.936-0.894-1.686-1.703-2.25c-0.811-0.564-1.772-0.847-2.888-0.847
			c-1.288,0-2.493,0.389-3.615,1.166c-1.123,0.775-1.953,1.821-2.49,3.135c-0.538,1.314-0.807,3.327-0.807,6.035v9.182h-2.788
			V150.081z"/>
	</g>
	<g>
		<path fill="#FFFFFF" d="M121.543,167.157c-2.916,0-5.289-2.373-5.289-5.29v-9.034c0-0.822,0.667-1.489,1.489-1.489
			c0.822,0,1.489,0.667,1.489,1.489v9.034c0,1.275,1.037,2.312,2.311,2.312c1.275,0,2.313-1.037,2.313-2.312
			c0-0.822,0.667-1.489,1.489-1.489c0.822,0,1.489,0.667,1.489,1.489C126.834,164.784,124.461,167.157,121.543,167.157z"/>
		<path fill="#FFFFFF" d="M128.26,125.869c-0.822,0-1.489-0.667-1.489-1.489c0-1.542-1.254-2.796-2.795-2.796
			c-1.542,0-2.796,1.254-2.796,2.796c0,0.822-0.667,1.489-1.489,1.489c-0.822,0-1.489-0.667-1.489-1.489
			c0-3.184,2.59-5.774,5.774-5.774c3.183,0,5.773,2.59,5.773,5.774C129.749,125.203,129.083,125.869,128.26,125.869z"/>
		<path fill="#FFFFFF" d="M91.336,125.869c-0.822,0-1.489-0.667-1.489-1.489c0-1.542-1.254-2.796-2.795-2.796
			c-1.542,0-2.796,1.254-2.796,2.796c0,0.822-0.667,1.489-1.489,1.489c-0.822,0-1.489-0.667-1.489-1.489
			c0-3.184,2.59-5.774,5.774-5.774c3.183,0,5.773,2.59,5.773,5.774C92.825,125.203,92.159,125.869,91.336,125.869z"/>
		<path fill="#FFFFFF" d="M101.386,167.173c-0.822,0-1.489-0.667-1.489-1.489v-10.641c0-0.822,0.667-1.489,1.489-1.489
			c0.822,0,1.489,0.667,1.489,1.489v10.641C102.875,166.506,102.208,167.173,101.386,167.173z"/>
		<path fill="#FFFFFF" d="M109.565,167.173c-0.822,0-1.489-0.667-1.489-1.489v-10.641c0-0.822,0.667-1.489,1.489-1.489
			c0.822,0,1.489,0.667,1.489,1.489v10.641C111.054,166.506,110.387,167.173,109.565,167.173z"/>
		<path fill="#FFFFFF" d="M89.537,167.157c-2.844,0-5.159-2.314-5.159-5.159c0-0.822,0.667-1.489,1.489-1.489
			c0.822,0,1.489,0.667,1.489,1.489c0,1.202,0.979,2.181,2.181,2.181c1.203,0,2.182-0.979,2.182-2.181v-9.164
			c0-0.822,0.667-1.489,1.489-1.489c0.822,0,1.489,0.667,1.489,1.489v9.164C94.697,164.842,92.382,167.157,89.537,167.157z"/>
		<path fill="#FFFFFF" d="M105.514,142.986c-4.435,0-8.044-3.608-8.044-8.043s3.608-8.043,8.044-8.043
			c4.435,0,8.043,3.608,8.043,8.043S109.948,142.986,105.514,142.986z M105.514,129.877c-2.793,0-5.066,2.272-5.066,5.065
			c0,2.793,2.273,5.066,5.066,5.066c2.793,0,5.065-2.273,5.065-5.066C110.579,132.15,108.306,129.877,105.514,129.877z"/>
		<path fill="#FFFFFF" d="M118.292,154.219l-1.097-2.768c12.22-4.841,20.116-16.463,20.116-29.609
			c0-17.554-14.281-31.835-31.835-31.835c-17.554,0-31.835,14.281-31.835,31.835c0,13.145,7.895,24.767,20.114,29.608l-1.097,2.769
			c-6.414-2.541-11.887-6.894-15.828-12.589c-4.035-5.83-6.167-12.672-6.167-19.788c0-19.196,15.617-34.813,34.812-34.813
			c19.196,0,34.813,15.617,34.813,34.813c0,7.116-2.133,13.958-6.168,19.788C130.18,147.325,124.706,151.678,118.292,154.219z"/>
	</g>
	<g>
		<path fill="#3E3A39" d="M59.174,207.361c-0.022,0.433-0.022,1.093,0,1.434c-5.711,1.16-6.507,1.365-6.962,1.638
			c-0.091-0.318-0.364-1.137-0.546-1.569c0.478-0.091,1.001-0.683,1.706-1.502c0.387-0.455,1.297-1.592,2.275-3.025
			c-2.73,0.387-3.254,0.523-3.595,0.683c-0.091-0.364-0.364-1.229-0.568-1.661c0.409-0.113,0.796-0.637,1.273-1.41
			c0.501-0.729,2.094-3.663,2.98-6.348l1.615,0.751c-0.955,2.365-2.252,4.823-3.549,6.733l2.844-0.295
			c0.501-0.819,1.024-1.684,1.434-2.549l1.479,0.91c-1.456,2.48-3.162,4.982-4.914,7.03L59.174,207.361z M51.644,213.344
			c1.934-0.363,4.823-1.046,7.667-1.684l0.159,1.479c-2.64,0.659-5.415,1.342-7.508,1.888L51.644,213.344z M66.545,196.054
			c-0.068,0.228-0.159,0.455-0.25,0.683c1.319,2.707,3.64,5.414,5.983,6.711c-0.409,0.318-0.933,0.956-1.229,1.411
			c-0.66-0.455-1.343-1.024-1.979-1.661v1.342h-7.144v-1.001c-0.569,0.569-1.229,1.115-1.889,1.57
			c-0.25-0.342-0.842-0.933-1.206-1.206c2.867-1.956,5.074-5.051,6.098-8.281L66.545,196.054z M60.835,207.111h9.214v9.26h-1.684
			v-1.16h-5.893v1.229h-1.638V207.111z M68.866,202.993c-1.251-1.297-2.389-2.866-3.299-4.55c-0.796,1.684-1.843,3.208-3.094,4.55
			H68.866z M62.473,208.635v5.051h5.893v-5.051H62.473z"/>
		<path fill="#3E3A39" d="M116.01,196.145c-0.66,1.684-1.456,3.321-2.344,4.868v15.289h-1.615v-12.764
			c-0.728,1.047-1.525,1.979-2.298,2.821c-0.182-0.409-0.637-1.273-0.955-1.66c2.229-2.185,4.322-5.574,5.619-9.032L116.01,196.145z
			 M123.905,201.514v12.786c0,0.955-0.205,1.456-0.796,1.729c-0.614,0.296-1.57,0.342-3.004,0.342
			c-0.091-0.478-0.363-1.229-0.591-1.706c1.069,0.045,2.047,0.022,2.343,0.022s0.387-0.091,0.387-0.387v-12.786h-3.458
			c-0.637,1.502-1.388,2.844-2.207,3.913c-0.272-0.25-0.978-0.819-1.342-1.069c1.661-2.093,2.98-5.347,3.732-8.668l1.66,0.364
			c-0.341,1.319-0.75,2.639-1.205,3.891h9.214l0.273-0.068l1.161,0.273c-0.296,1.661-0.706,3.617-1.002,4.823l-1.41-0.272
			c0.137-0.819,0.341-2.025,0.523-3.186H123.905z M120.219,205.587c-0.729,2.98-1.934,5.847-3.321,7.735
			c-0.319-0.272-1.047-0.705-1.456-0.933c1.433-1.73,2.502-4.437,3.116-7.121L120.219,205.587z M127.044,205.087
			c1.297,2.411,2.457,5.528,2.844,7.599l-1.615,0.546c-0.364-2.07-1.502-5.256-2.707-7.645L127.044,205.087z"/>
		<path fill="#3E3A39" d="M170.093,199.762c-0.683,1.138-1.433,2.116-2.229,2.958c-0.137-0.387-0.592-1.229-0.887-1.615
			c1.364-1.32,2.57-3.345,3.275-5.461l1.502,0.455c-0.228,0.706-0.523,1.434-0.864,2.116h4.664v1.547H170.093z M175.508,211.775
			c0.046,0.455,0.182,1.092,0.296,1.456c-4.277,2.252-4.938,2.594-5.301,2.98c-0.159-0.387-0.592-0.956-0.888-1.275
			c0.455-0.272,1.206-0.955,1.206-2.002v-4.596h-3.299v-1.547h3.299v-3.071h-2.116v-1.524h6.37v1.524h-2.639v3.071h3.185v1.547
			h-3.185v4.96L175.508,211.775z M187.316,200.354v9.919h-1.615V209h-3.117v7.371h-1.66V209h-3.095v1.388h-1.547v-10.033h4.642
			v-4.732h1.66v4.732H187.316z M180.923,207.385v-5.393h-3.095v5.393H180.923z M185.701,207.385v-5.393h-3.117v5.393H185.701z"/>
		<path fill="#3E3A39" d="M242.196,209.022c-0.91,1.684-2.253,3.003-3.846,4.05c1.957,0.728,4.209,1.229,6.553,1.501
			c-0.318,0.364-0.705,1.047-0.91,1.48c-2.639-0.364-5.119-1.047-7.28-2.048c-1.911,0.955-4.072,1.615-6.279,2.024
			c-0.113-0.387-0.5-1.092-0.773-1.388c1.911-0.318,3.776-0.796,5.46-1.479c-1.388-0.819-2.594-1.797-3.571-2.958
			c-1.297,2.525-3.14,4.505-5.62,5.938c-0.182-0.296-0.727-1.001-1.046-1.297c3.23-1.706,5.278-4.459,6.461-8.236h-3.913v-1.455
			h4.322c0.159-0.638,0.296-1.297,0.41-1.979l1.615,0.204c-0.114,0.614-0.251,1.206-0.387,1.775h9.646v1.455h-10.057
			c-0.159,0.638-0.387,1.252-0.614,1.82h8.623l0.272-0.068L242.196,209.022z M227.225,204.928h-1.433v-3.8h3.958
			c-0.228-0.705-0.546-1.547-0.819-2.23l1.252-0.478c0.387,0.842,0.842,1.934,1.069,2.707h3.617
			c-0.205-0.751-0.523-1.706-0.773-2.435l1.274-0.409c0.387,0.864,0.796,2.048,1.023,2.844h2.343
			c0.638-0.933,1.343-2.252,1.752-3.208l1.502,0.501c-0.523,0.91-1.16,1.888-1.706,2.707h4.436v3.8h-1.479v-2.344h-16.017V204.928z
			 M243.401,197.26c-4.209,0.683-11.103,1.093-16.676,1.161c-0.046-0.41-0.205-0.979-0.342-1.343
			c5.574-0.113,12.514-0.546,16.472-1.183L243.401,197.26z M233.073,209.887c0.978,0.979,2.23,1.82,3.662,2.525
			c1.252-0.705,2.321-1.524,3.14-2.525H233.073z"/>
		<path fill="#3E3A39" d="M288.908,195.872c-0.387,1.115-0.797,2.366-1.184,3.345h3.776v14.766h-6.324v1.797h-1.547v-16.562h2.548
			c0.341-1.092,0.751-2.616,0.91-3.686L288.908,195.872z M289.953,200.741h-4.777v4.755h4.777V200.741z M289.953,212.458v-5.46
			h-4.777v5.46H289.953z M302.626,200.012c-0.364,10.375-0.66,13.879-1.57,14.993c-0.5,0.637-1.023,0.842-1.797,0.91
			c-0.797,0.091-2.094,0.046-3.367-0.023c-0.046-0.501-0.251-1.184-0.569-1.661c1.479,0.137,2.844,0.137,3.367,0.137
			c0.455,0,0.705-0.046,0.933-0.342c0.751-0.796,1.093-4.254,1.389-13.309h-5.779c-0.637,1.524-1.342,2.912-2.139,3.981
			c-0.296-0.273-1.023-0.729-1.388-0.956c1.524-2.002,2.753-5.142,3.481-8.259l1.615,0.387c-0.273,1.115-0.592,2.207-0.979,3.276
			h6.803V200.012z M297.598,210.273c-0.683-1.365-2.207-3.617-3.458-5.255l1.319-0.773c1.274,1.615,2.844,3.799,3.572,5.142
			L297.598,210.273z"/>
		<path fill="#3E3A39" d="M360.827,214.005v1.638H340.67v-1.638h9.214v-5.778h-6.757v-1.639h6.757v-4.96h-5.347
			c-0.728,1.434-1.524,2.686-2.389,3.709c-0.318-0.273-1.069-0.773-1.524-1.001c1.865-2.002,3.321-5.142,4.209-8.372l1.706,0.363
			c-0.364,1.252-0.773,2.48-1.274,3.641h4.619v-4.368h1.729v4.368h8.145v1.66h-8.145v4.96h7.304v1.639h-7.304v5.778H360.827z"/>
		<path fill="#3E3A39" d="M402.284,205.746c-0.933-0.637-2.799-1.729-4.187-2.457l0.934-1.229c1.319,0.66,3.207,1.661,4.208,2.298
			L402.284,205.746z M398.643,214.915c1.229-1.706,2.98-4.71,4.301-7.28l1.229,1.114c-1.184,2.39-2.776,5.21-4.118,7.304
			L398.643,214.915z M403.421,199.581c-0.933-0.66-2.821-1.752-4.209-2.503l0.933-1.206c1.388,0.66,3.299,1.707,4.255,2.344
			L403.421,199.581z M412.522,203.835v3.731h4.755v8.668h-1.615v-0.842h-8.1v0.956h-1.547v-8.782h4.891v-3.731h-6.552v-1.638h6.552
			v-3.686c-1.66,0.25-3.39,0.455-5.005,0.614c-0.068-0.41-0.296-1.047-0.455-1.434c3.913-0.409,8.486-1.114,11.012-2.024
			l1.342,1.319c-1.479,0.5-3.321,0.933-5.277,1.274v3.936h6.233v1.638H412.522z M415.661,209.135h-8.1v4.688h8.1V209.135z"/>
	</g>
</g>
</svg>
